<?xml version="1.0" encoding="UTF-8" standalone="no"?>
<!-- Created with Inkscape (http://www.inkscape.org/) -->

<svg
   xmlns:dc="http://purl.org/dc/elements/1.1/"
   xmlns:cc="http://creativecommons.org/ns#"
   xmlns:rdf="http://www.w3.org/1999/02/22-rdf-syntax-ns#"
   xmlns:svg="http://www.w3.org/2000/svg"
   xmlns="http://www.w3.org/2000/svg"
   xmlns:xlink="http://www.w3.org/1999/xlink"
   xmlns:sodipodi="http://sodipodi.sourceforge.net/DTD/sodipodi-0.dtd"
   xmlns:inkscape="http://www.inkscape.org/namespaces/inkscape"
   width="24"
   height="24"
   id="svg2"
   version="1.1"
   inkscape:version="0.48.0 r9654"
   sodipodi:docname="logitech-g-keyboard-panel.svg">
  <defs
     id="defs4">
    <linearGradient
       gradientTransform="translate(-24.361257,-3.561305)"
       gradientUnits="userSpaceOnUse"
       xlink:href="#linearGradient3587-6-5"
       id="linearGradient2401"
       y2="18.561304"
       x2="32.361256"
       y1="4.561305"
       x1="32.361256" />
    <linearGradient
       id="linearGradient3587-6-5">
      <stop
         offset="0"
         style="stop-color:#000000;stop-opacity:1"
         id="stop3589-9-2" />
      <stop
         offset="1"
         style="stop-color:#363636;stop-opacity:1"
         id="stop3591-7-4" />
    </linearGradient>
    <linearGradient
       inkscape:collect="always"
       xlink:href="#linearGradient3587-6-5"
       id="linearGradient15268"
       gradientUnits="userSpaceOnUse"
       gradientTransform="translate(-24.361257,-3.5792516)"
       x1="32.361256"
       y1="4.561305"
       x2="32.361256"
       y2="18.561304" />
    <linearGradient
       inkscape:collect="always"
       xlink:href="#linearGradient3587-6-5-1"
       id="linearGradient15268-2"
       gradientUnits="userSpaceOnUse"
       gradientTransform="translate(-24.361257,-3.5792516)"
       x1="32.361256"
       y1="4.561305"
       x2="32.361256"
       y2="18.561304" />
    <linearGradient
       id="linearGradient3587-6-5-1">
      <stop
         offset="0"
         style="stop-color:#000000;stop-opacity:1"
         id="stop3589-9-2-0" />
      <stop
         offset="1"
         style="stop-color:#363636;stop-opacity:1"
         id="stop3591-7-4-5" />
    </linearGradient>
  </defs>
  <sodipodi:namedview
     id="base"
     pagecolor="#ffffff"
     bordercolor="#666666"
     borderopacity="1.0"
     inkscape:pageopacity="0"
     inkscape:pageshadow="2"
     inkscape:zoom="21.612122"
     inkscape:cx="10.556556"
     inkscape:cy="13.039965"
     inkscape:document-units="px"
     inkscape:current-layer="layer1"
     showgrid="false"
     inkscape:window-width="1143"
     inkscape:window-height="734"
     inkscape:window-x="63"
     inkscape:window-y="30"
     inkscape:window-maximized="0" />
  <metadata
     id="metadata7">
    <rdf:RDF>
      <cc:Work
         rdf:about="">
        <dc:format>image/svg+xml</dc:format>
        <dc:type
           rdf:resource="http://purl.org/dc/dcmitype/StillImage" />
        <dc:title />
      </cc:Work>
    </rdf:RDF>
  </metadata>
  <g
     inkscape:label="Layer 1"
     inkscape:groupmode="layer"
     id="layer1"
     transform="translate(0,-1028.3622)">
    <path
       inkscape:connector-curvature="0"
       style="opacity:0.60000012;fill:#ffffff;fill-opacity:1;fill-rule:nonzero;stroke:none;stroke-width:1;marker:none;visibility:visible;display:inline;overflow:visible;enable-background:accumulate"
       d="m 5.5182181,1034.344 c -1.2140582,0 -2.1914408,0.9774 -2.1914408,2.1915 l 0,10.9571 c 0,1.2141 0.9773826,2.1915 2.1914408,2.1915 l 13.1486449,0 c 1.214058,0 2.191441,-0.9774 2.191441,-2.1915 l 0,-10.9571 c 0,-1.2141 -0.977383,-2.1915 -2.191441,-2.1915 l -13.1486449,0 z m 7.3961129,2.1573 c 0.501103,0 0.936561,0.031 1.335409,0.103 0.409061,0.061 0.775122,0.1477 1.06148,0.2398 0.296567,0.082 0.534976,0.1818 0.719066,0.2739 0.194299,0.092 0.329072,0.1542 0.410895,0.2054 l -0.684825,1.9175 c -0.327265,-0.1739 -0.700448,-0.3224 -1.129961,-0.4452 -0.419304,-0.1329 -0.90279,-0.2055 -1.403892,-0.2055 -1.114719,0 -1.895785,0.3351 -2.396889,0.9589 -0.490886,0.6136 -0.753311,1.4258 -0.753308,2.4997 -3e-6,0.5214 0.04849,1.0085 0.171207,1.4381 0.122717,0.4191 0.336657,0.7889 0.582101,1.0957 0.245437,0.3068 0.522106,0.5451 0.890273,0.719 0.368157,0.1636 0.81028,0.2397 1.301168,0.2397 0.265888,0 0.500738,0.011 0.684824,0 0.194302,-0.011 0.370439,-0.037 0.51362,-0.068 l 0,-3.6981 2.362647,0 0,5.2731 c -0.286358,0.1125 -0.735603,0.2198 -1.36965,0.3425 -0.634065,0.1329 -1.397781,0.2055 -2.328406,0.2055 -0.79769,0 -1.536936,-0.1313 -2.191441,-0.3768 -0.644287,-0.2454 -1.1833808,-0.5911 -1.6435804,-1.0614 -0.4602047,-0.4705 -0.840054,-1.0612 -1.0957208,-1.7464 -0.2454422,-0.6851 -0.3424134,-1.4832 -0.3424126,-2.3626 -8e-7,-0.8897 0.1347727,-1.6775 0.4108951,-2.3626 0.2761202,-0.6852 0.6493039,-1.2417 1.1299616,-1.7122 0.4806537,-0.4806 1.0335351,-0.8502 1.6778221,-1.0957 0.654506,-0.2454 1.352387,-0.3765 2.088717,-0.3765 z"
       id="rect2386-1" />
    <g
       id="layer1-7"
       transform="matrix(1.0957204,0,0,1.0957204,3.3267773,1031.0569)">
      <path
         style="opacity:0.7;fill:url(#linearGradient15268);fill-opacity:1;fill-rule:nonzero;stroke:none;stroke-width:1;marker:none;visibility:visible;display:inline;overflow:visible;enable-background:accumulate"
         d="m 2,0.96875 c -1.108,0 -2,0.892 -2,2 l 0,10 c 0,1.108 0.892,2 2,2 l 12,0 c 1.108,0 2,-0.892 2,-2 l 0,-10 c 0,-1.108 -0.892,-2 -2,-2 l -12,0 z M 8.75,2.9375 c 0.4573273,9.9e-6 0.8547436,0.028427 1.21875,0.09375 0.373326,0.05601 0.707409,0.1347597 0.96875,0.21875 0.270659,0.074676 0.488242,0.1660095 0.65625,0.25 0.177325,0.084009 0.300325,0.1408426 0.375,0.1875 l -0.625,1.75 C 11.045075,5.2788409 10.704492,5.1432577 10.3125,5.03125 9.9298266,4.9099246 9.488577,4.843758 9.03125,4.84375 8.0139118,4.843758 7.3010792,5.1494244 6.84375,5.71875 6.3957468,6.2787566 6.156247,7.0200058 6.15625,8 c -3e-6,0.4760044 0.044247,0.9205039 0.15625,1.3125 0.1119968,0.3826698 0.3072466,0.720003 0.53125,1 0.2239961,0.280002 0.4764959,0.497585 0.8125,0.65625 0.3359952,0.149335 0.7394948,0.218752 1.1875,0.21875 0.2426608,2e-6 0.4569939,0.0093 0.625,0 C 9.6460769,11.1782 9.8068267,11.153 9.9375,11.125 l 0,-3.375 2.15625,0 0,4.8125 c -0.261342,0.102667 -0.671342,0.2005 -1.25,0.3125 -0.578674,0.121333 -1.275673,0.1875 -2.125,0.1875 -0.7280048,0 -1.4026708,-0.11975 -2,-0.34375 -0.5880029,-0.224 -1.0800024,-0.539416 -1.5,-0.96875 -0.4200016,-0.429332 -0.7666679,-0.968415 -1,-1.59375 C 3.9947492,9.53092 3.9062493,8.8026707 3.90625,8 3.9062493,7.1880057 4.0292492,6.4690897 4.28125,5.84375 4.5332487,5.2184243 4.8738317,4.7105915 5.3125,4.28125 5.7511641,3.8425924 6.2557469,3.5052594 6.84375,3.28125 7.4410791,3.0572598 8.0779951,2.9375099 8.75,2.9375 z"
         transform="translate(0,1)"
         id="rect2386"
         inkscape:connector-curvature="0" />
    </g>
  </g>
</svg>
