<?xml version="1.0" encoding="UTF-8" standalone="no"?>
<!-- Created with Inkscape (http://www.inkscape.org/) -->

<svg
   xmlns:dc="http://purl.org/dc/elements/1.1/"
   xmlns:cc="http://creativecommons.org/ns#"
   xmlns:rdf="http://www.w3.org/1999/02/22-rdf-syntax-ns#"
   xmlns:svg="http://www.w3.org/2000/svg"
   xmlns="http://www.w3.org/2000/svg"
   xmlns:sodipodi="http://sodipodi.sourceforge.net/DTD/sodipodi-0.dtd"
   xmlns:inkscape="http://www.inkscape.org/namespaces/inkscape"
   id="svg7384"
   height="16"
   width="16"
   version="1.1"
   inkscape:version="0.48.3.1 r9886"
   sodipodi:docname="logitech-mx5500-symbolic.svg">
  <defs
     id="defs10" />
  <sodipodi:namedview
     pagecolor="#ffffff"
     bordercolor="#666666"
     borderopacity="1"
     objecttolerance="10"
     gridtolerance="10"
     guidetolerance="10"
     inkscape:pageopacity="0"
     inkscape:pageshadow="2"
     inkscape:window-width="1920"
     inkscape:window-height="1058"
     id="namedview8"
     showgrid="false"
     inkscape:zoom="14.75"
     inkscape:cx="-22.937889"
     inkscape:cy="8.2254677"
     inkscape:window-x="1920"
     inkscape:window-y="0"
     inkscape:window-maximized="1"
     inkscape:current-layer="svg7384" />
  <metadata
     id="metadata90">
    <rdf:RDF>
      <cc:Work
         rdf:about="">
        <dc:format>image/svg+xml</dc:format>
        <dc:type
           rdf:resource="http://purl.org/dc/dcmitype/StillImage" />
        <dc:title>Gnome Symbolic Icon Theme</dc:title>
      </cc:Work>
    </rdf:RDF>
  </metadata>
  <title
     id="title9167">Gnome Symbolic Icon Theme</title>
  <path
     style="fill:#bebebe;fill-opacity:1;stroke:none"
     d="M 2 1 C 0.892 1 0 1.892 0 3 L 0 13 C 0 14.108 0.892 15 2 15 L 14 15 C 15.108 15 16 14.108 16 13 L 16 3 C 16 1.892 15.108 1 14 1 L 2 1 z M 3.96875 6.0625 C 4.5019502 6.0625044 4.9199185 6.1816449 5.21875 6.40625 C 5.5195273 6.6289101 5.7265583 6.9492223 5.8125 7.34375 L 4.9375 7.5 C 4.8769498 7.2890657 4.7617155 7.1210971 4.59375 7 C 4.4277315 6.8769567 4.2187473 6.8125036 3.96875 6.8125 C 3.5898417 6.8125036 3.2871076 6.9472691 3.0625 7.1875 C 2.8398425 7.4277374 2.7187488 7.7773464 2.71875 8.25 C 2.7187488 8.7597673 2.8359362 9.1503919 3.0625 9.40625 C 3.2890608 9.660157 3.6015605 9.7812507 3.96875 9.78125 C 4.150388 9.7812507 4.3183566 9.7265632 4.5 9.65625 C 4.6835906 9.5839852 4.8378873 9.5078134 4.96875 9.40625 L 4.96875 8.875 L 4 8.875 L 4 8.125 L 5.84375 8.125 L 5.84375 9.84375 C 5.6621053 10.019532 5.4081993 10.177735 5.0625 10.3125 C 4.7187468 10.445312 4.3847628 10.5 4.03125 10.5 C 3.5820292 10.5 3.1777327 10.40625 2.84375 10.21875 C 2.5097647 10.029297 2.261718 9.78711 2.09375 9.4375 C 1.9257809 9.0859389 1.8437497 8.6933611 1.84375 8.28125 C 1.8437497 7.833987 1.9374996 7.4414093 2.125 7.09375 C 2.3124992 6.7460975 2.5761708 6.4668008 2.9375 6.28125 C 3.212889 6.1386762 3.5585917 6.0625044 3.96875 6.0625 z M 6.34375 6.15625 L 9.75 6.15625 L 9.75 6.875 L 8.5 6.875 L 8.5 10.4375 L 7.625 10.4375 L 7.625 6.875 L 6.34375 6.875 L 6.34375 6.15625 z M 10.34375 6.15625 L 11.1875 6.15625 L 11.1875 8.0625 L 12.9375 6.15625 L 14.125 6.15625 L 12.5 7.8125 L 14.21875 10.4375 L 13.09375 10.4375 L 11.90625 8.4375 L 11.1875 9.15625 L 11.1875 10.4375 L 10.34375 10.4375 L 10.34375 6.15625 z "
     id="rect2984" />
  <path
     style="fill:#aad400;fill-opacity:1;stroke:none"
     d="m -58.203389,-9.5084746 c -1.108,0 -2,0.892 -2,2 l 0,9.9999998 c 0,1.1080005 0.892,2.0000005 2,2.0000005 l 12,0 c 1.108,0 2,-0.892 2,-2.0000005 l 0,-9.9999998 c 0,-1.108 -0.892,-2 -2,-2 l -12,0 z m 2.5625,5.125 c 0.5332,4.4e-6 0.951168,0.1191449 1.25,0.34375 0.300777,0.2226601 0.507808,0.5429723 0.59375,0.9375 l -0.875,0.15625 c -0.06055,-0.2109343 -0.175785,-0.3789029 -0.34375,-0.5 -0.166019,-0.1230433 -0.375003,-0.1874964 -0.625,-0.1875 -0.378908,3.6e-6 -0.681642,0.1347691 -0.90625,0.375 -0.222658,0.2402374 -0.312501,0.5898464 -0.3125,1.0625 -10e-7,0.5097673 0.117186,0.9003919 0.34375,1.15625 0.226561,0.25390701 0.50781,0.37500071 0.875,0.37500001 0.181638,7e-7 0.380857,-0.023437 0.5625,-0.09375 0.183591,-0.072265 0.337887,-0.1796866 0.46875,-0.28125001 l 0,-0.53125 -1,0 0,-0.71875 1.875,0 0,1.68750001 c -0.181645,0.175782 -0.466801,0.333985 -0.8125,0.46875001 -0.343753,0.13281199695 -0.677737,0.21875 -1.03125,0.21875 -0.449221,0 -0.853517,-0.09375 -1.1875,-0.28125 -0.333985,-0.18945301 -0.582032,-0.46289001 -0.75,-0.81250002 -0.167969,-0.3515611 -0.25,-0.7441389 -0.25,-1.15625 0,-0.447263 0.09375,-0.8398407 0.28125,-1.1875 0.187499,-0.3476525 0.482421,-0.6269492 0.84375,-0.8125 0.275389,-0.1425738 0.589842,-0.2187456 1,-0.21875 z m 3.9375,0.0625 0.6875,0 0,4.31250002 -0.84375,0 0,-3.09375002 c -0.300783,0.2812528 -0.654298,0.490237 -1.0625,0.625 l 0,-0.75 c 0.214843,-0.070309 0.466796,-0.2109341 0.71875,-0.40625 0.251952,-0.1972618 0.406248,-0.4257772 0.5,-0.6875 z m 3.21875,0 c 0.435545,4.3e-6 0.814451,0.1621135 1.09375,0.5 0.279294,0.335941 0.406247,0.9160185 0.40625,1.6875 -3e-6,0.7851576 -0.146487,1.33984451 -0.4375,1.68750001 -0.291018,0.34765601 -0.658205,0.53125001 -1.125,0.53125001 -0.335939,0 -0.60547,-0.103516 -0.8125,-0.28125 -0.207032,-0.17968701 -0.347657,-0.45703061 -0.40625,-0.81250002 l 0.78125,-0.0625 c 0.01953,0.16211031 0.07422,0.26562581 0.15625,0.34375001 0.08203,0.078126 0.208983,0.1250006 0.34375,0.125 0.16992,6e-7 0.318358,-0.093749 0.4375,-0.25 0.119139,-0.15624901 0.185545,-0.47656121 0.21875,-0.96875001 -0.207033,0.2402359 -0.470705,0.3750015 -0.78125,0.375 -0.337892,1.5e-6 -0.628907,-0.1464828 -0.875,-0.40625 -0.244141,-0.2617166 -0.375,-0.5820288 -0.375,-1 0,-0.4355436 0.148437,-0.7968714 0.40625,-1.0625 0.259765,-0.2675739 0.568358,-0.4062457 0.96875,-0.40625 z m -0.03125,0.6875 c -0.152345,3.6e-6 -0.273439,0.06641 -0.375,0.1875 -0.09961,0.119144 -0.156251,0.3203156 -0.15625,0.59375 -10e-7,0.2773463 0.04687,0.462893 0.15625,0.59375 0.109374,0.1289084 0.242186,0.2187521 0.40625,0.21875 0.158201,2.1e-6 0.298826,-0.062498 0.40625,-0.1875 0.109373,-0.1249976 0.156248,-0.32031 0.15625,-0.5625 -2e-6,-0.2656219 -0.0332,-0.4785124 -0.15625,-0.625 -0.121096,-0.1464808 -0.277345,-0.2187464 -0.4375,-0.21875 z"
     id="rect2983"
     inkscape:connector-curvature="0" />
</svg>
