<?xml version="1.0" encoding="UTF-8" standalone="no"?>
<!-- Created with Inkscape (http://www.inkscape.org/) -->

<svg
   xmlns:dc="http://purl.org/dc/elements/1.1/"
   xmlns:cc="http://creativecommons.org/ns#"
   xmlns:rdf="http://www.w3.org/1999/02/22-rdf-syntax-ns#"
   xmlns:svg="http://www.w3.org/2000/svg"
   xmlns="http://www.w3.org/2000/svg"
   xmlns:sodipodi="http://sodipodi.sourceforge.net/DTD/sodipodi-0.dtd"
   xmlns:inkscape="http://www.inkscape.org/namespaces/inkscape"
   id="svg7384"
   height="16"
   width="16"
   version="1.1"
   inkscape:version="0.48.3.1 r9886"
   sodipodi:docname="logitech-g11-symbolic.svg">
  <defs
     id="defs10" />
  <sodipodi:namedview
     pagecolor="#ffffff"
     bordercolor="#666666"
     borderopacity="1"
     objecttolerance="10"
     gridtolerance="10"
     guidetolerance="10"
     inkscape:pageopacity="0"
     inkscape:pageshadow="2"
     inkscape:window-width="1440"
     inkscape:window-height="998"
     id="namedview8"
     showgrid="false"
     inkscape:zoom="14.75"
     inkscape:cx="-11.412465"
     inkscape:cy="8.2254677"
     inkscape:window-x="2076"
     inkscape:window-y="8"
     inkscape:window-maximized="0"
     inkscape:current-layer="svg7384" />
  <metadata
     id="metadata90">
    <rdf:RDF>
      <cc:Work
         rdf:about="">
        <dc:format>image/svg+xml</dc:format>
        <dc:type
           rdf:resource="http://purl.org/dc/dcmitype/StillImage" />
        <dc:title>Gnome Symbolic Icon Theme</dc:title>
      </cc:Work>
    </rdf:RDF>
  </metadata>
  <title
     id="title9167">Gnome Symbolic Icon Theme</title>
  <path
     style="fill:#bebebe;fill-opacity:1;stroke:none"
     d="M 2 1 C 0.892 1 0 1.892 0 3 L 0 13 C 0 14.108 0.892 15 2 15 L 14 15 C 15.108 15 16 14.108 16 13 L 16 3 C 16 1.892 15.108 1 14 1 L 2 1 z M 4.5625 6.125 C 5.0957002 6.1250044 5.5136685 6.2441449 5.8125 6.46875 C 6.1132773 6.6914101 6.3203083 7.0117223 6.40625 7.40625 L 5.53125 7.5625 C 5.4706998 7.3515657 5.3554655 7.1835971 5.1875 7.0625 C 5.0214815 6.9394567 4.8124973 6.8750036 4.5625 6.875 C 4.1835917 6.8750036 3.8808576 7.0097691 3.65625 7.25 C 3.4335925 7.4902374 3.3437488 7.8398464 3.34375 8.3125 C 3.3437488 8.8222673 3.4609362 9.2128919 3.6875 9.46875 C 3.9140608 9.722657 4.1953105 9.8437507 4.5625 9.84375 C 4.744138 9.8437507 4.9433566 9.8203132 5.125 9.75 C 5.3085906 9.6777352 5.4628873 9.5703134 5.59375 9.46875 L 5.59375 8.9375 L 4.59375 8.9375 L 4.59375 8.21875 L 6.46875 8.21875 L 6.46875 9.90625 C 6.2871053 10.082032 6.0019493 10.240235 5.65625 10.375 C 5.3124968 10.507812 4.9785128 10.59375 4.625 10.59375 C 4.1757792 10.59375 3.7714827 10.5 3.4375 10.3125 C 3.1035147 10.123047 2.855468 9.84961 2.6875 9.5 C 2.5195309 9.1484389 2.4374997 8.7558611 2.4375 8.34375 C 2.4374997 7.896487 2.5312496 7.5039093 2.71875 7.15625 C 2.9062492 6.8085975 3.2011708 6.5293008 3.5625 6.34375 C 3.837889 6.2011762 4.1523417 6.1250044 4.5625 6.125 z M 8.5 6.1875 L 9.1875 6.1875 L 9.1875 10.5 L 8.34375 10.5 L 8.34375 7.40625 C 8.0429675 7.6875028 7.6894522 7.896487 7.28125 8.03125 L 7.28125 7.28125 C 7.4960931 7.2109408 7.748046 7.0703159 8 6.875 C 8.2519517 6.6777382 8.4062484 6.4492228 8.5 6.1875 z M 11.78125 6.1875 C 12.185545 6.1875043 12.505857 6.3359417 12.75 6.59375 C 12.951169 6.8046912 13.031247 7.0468785 13.03125 7.3125 C 13.031247 7.689456 12.849607 7.9628932 12.4375 8.1875 C 12.683591 8.2402366 12.884763 8.3789084 13.03125 8.5625 C 13.179684 8.7460955 13.249997 8.9589859 13.25 9.21875 C 13.249997 9.595704 13.087888 9.9218756 12.8125 10.1875 C 12.537107 10.453125 12.222654 10.59375 11.8125 10.59375 C 11.423827 10.59375 11.099608 10.472656 10.84375 10.25 C 10.58789 10.025391 10.416015 9.7363289 10.375 9.375 L 11.1875 9.28125 C 11.21289 9.484376 11.263671 9.642579 11.375 9.75 C 11.486327 9.8574225 11.623045 9.9062506 11.78125 9.90625 C 11.95117 9.9062506 12.103514 9.8476569 12.21875 9.71875 C 12.335935 9.5898447 12.406248 9.4062511 12.40625 9.1875 C 12.406248 8.9804703 12.330076 8.8085954 12.21875 8.6875 C 12.10742 8.5664082 11.972654 8.500002 11.8125 8.5 C 11.70703 8.500002 11.583983 8.5214864 11.4375 8.5625 L 11.53125 7.90625 C 11.753905 7.912112 11.914061 7.8515651 12.03125 7.75 C 12.148435 7.6464872 12.218748 7.5136749 12.21875 7.34375 C 12.218748 7.1992221 12.179685 7.0859409 12.09375 7 C 12.007811 6.9140661 11.892576 6.8750036 11.75 6.875 C 11.609374 6.8750036 11.474608 6.9335973 11.375 7.03125 C 11.275389 7.1289096 11.240233 7.2500032 11.21875 7.4375 L 10.4375 7.3125 C 10.490234 7.0527378 10.582031 6.8418005 10.6875 6.6875 C 10.794921 6.531254 10.935546 6.4316447 11.125 6.34375 C 11.316405 6.2539105 11.544921 6.1875043 11.78125 6.1875 z "
     id="rect2983" />
</svg>
