<?xml version="1.0" encoding="UTF-8" standalone="no"?>
<!-- Created with Inkscape (http://www.inkscape.org/) -->

<svg
   xmlns:dc="http://purl.org/dc/elements/1.1/"
   xmlns:cc="http://creativecommons.org/ns#"
   xmlns:rdf="http://www.w3.org/1999/02/22-rdf-syntax-ns#"
   xmlns:svg="http://www.w3.org/2000/svg"
   xmlns="http://www.w3.org/2000/svg"
   xmlns:sodipodi="http://sodipodi.sourceforge.net/DTD/sodipodi-0.dtd"
   xmlns:inkscape="http://www.inkscape.org/namespaces/inkscape"
   id="svg7384"
   height="16"
   width="16"
   version="1.1"
   inkscape:version="0.48.3.1 r9886"
   sodipodi:docname="logitech-g19-symbolic.svg">
  <defs
     id="defs10" />
  <sodipodi:namedview
     pagecolor="#ffffff"
     bordercolor="#666666"
     borderopacity="1"
     objecttolerance="10"
     gridtolerance="10"
     guidetolerance="10"
     inkscape:pageopacity="0"
     inkscape:pageshadow="2"
     inkscape:window-width="1440"
     inkscape:window-height="998"
     id="namedview8"
     showgrid="false"
     inkscape:zoom="14.75"
     inkscape:cx="-11.412465"
     inkscape:cy="8.2254677"
     inkscape:window-x="2076"
     inkscape:window-y="8"
     inkscape:window-maximized="0"
     inkscape:current-layer="svg7384" />
  <metadata
     id="metadata90">
    <rdf:RDF>
      <cc:Work
         rdf:about="">
        <dc:format>image/svg+xml</dc:format>
        <dc:type
           rdf:resource="http://purl.org/dc/dcmitype/StillImage" />
        <dc:title>Gnome Symbolic Icon Theme</dc:title>
      </cc:Work>
    </rdf:RDF>
  </metadata>
  <title
     id="title9167">Gnome Symbolic Icon Theme</title>
  <path
     style="fill:#bebebe;fill-opacity:1;stroke:none"
     d="M 2 1 C 0.892 1 0 1.892 0 3 L 0 13 C 0 14.108 0.892 15 2 15 L 14 15 C 15.108 15 16 14.108 16 13 L 16 3 C 16 1.892 15.108 1 14 1 L 2 1 z M 3.0625 6.125 C 3.5957002 6.1250044 4.0136685 6.2441449 4.3125 6.46875 C 4.6132773 6.6914101 4.8203083 7.0117223 4.90625 7.40625 L 4.03125 7.5625 C 3.9706998 7.3515657 3.8554655 7.1835971 3.6875 7.0625 C 3.5214815 6.9394567 3.3124973 6.8750036 3.0625 6.875 C 2.6835917 6.8750036 2.3808576 7.0097691 2.15625 7.25 C 1.9335925 7.4902374 1.8437488 7.8398464 1.84375 8.3125 C 1.8437488 8.8222673 1.9296862 9.2128919 2.15625 9.46875 C 2.3828108 9.722657 2.6953105 9.8437507 3.0625 9.84375 C 3.244138 9.8437507 3.4121066 9.8203132 3.59375 9.75 C 3.7773406 9.6777352 3.9628873 9.5703134 4.09375 9.46875 L 4.09375 8.9375 L 3.09375 8.9375 L 3.09375 8.21875 L 4.96875 8.21875 L 4.96875 9.90625 C 4.7871053 10.082032 4.5019493 10.240235 4.15625 10.375 C 3.8124968 10.507812 3.4785128 10.59375 3.125 10.59375 C 2.6757792 10.59375 2.2714827 10.5 1.9375 10.3125 C 1.6035147 10.123047 1.355468 9.84961 1.1875 9.5 C 1.0195309 9.1484389 0.93749971 8.7558611 0.9375 8.34375 C 0.93749971 7.896487 1.0312496 7.5039093 1.21875 7.15625 C 1.4062492 6.8085975 1.6699208 6.5293008 2.03125 6.34375 C 2.306639 6.2011762 2.6523417 6.1250044 3.0625 6.125 z M 7 6.1875 L 7.6875 6.1875 L 7.6875 10.5 L 6.84375 10.5 L 6.84375 7.40625 C 6.5429675 7.6875028 6.1894522 7.896487 5.78125 8.03125 L 5.78125 7.28125 C 5.9960931 7.2109408 6.248046 7.0703159 6.5 6.875 C 6.7519517 6.6777382 6.9062484 6.4492228 7 6.1875 z M 10.03125 6.1875 L 10.6875 6.1875 L 10.6875 10.5 L 9.875 10.5 L 9.875 7.40625 C 9.5742175 7.6875028 9.2207022 7.896487 8.8125 8.03125 L 8.8125 7.28125 C 9.0273431 7.2109408 9.248046 7.0703159 9.5 6.875 C 9.7519517 6.6777382 9.9374984 6.4492228 10.03125 6.1875 z M 13.3125 6.1875 C 13.728514 6.1875043 14.046873 6.3593792 14.28125 6.65625 C 14.560544 7.007816 14.718747 7.5605498 14.71875 8.375 C 14.718747 9.1875013 14.562497 9.800782 14.28125 10.15625 C 14.048826 10.449219 13.728514 10.59375 13.3125 10.59375 C 12.89453 10.59375 12.568358 10.414063 12.3125 10.09375 C 12.05664 9.7714851 11.90625 9.1992201 11.90625 8.375 C 11.90625 7.5664092 12.0625 6.9804723 12.34375 6.625 C 12.576171 6.3320354 12.896483 6.1875043 13.3125 6.1875 z M 13.3125 6.875 C 13.212889 6.8750036 13.109374 6.9043005 13.03125 6.96875 C 12.953124 7.0312535 12.917968 7.1484409 12.875 7.3125 C 12.818358 7.5253936 12.781249 7.8710964 12.78125 8.375 C 12.781249 8.8789079 12.792968 9.2480481 12.84375 9.4375 C 12.89453 9.6250009 12.955077 9.7500008 13.03125 9.8125 C 13.109374 9.8750006 13.212889 9.9062506 13.3125 9.90625 C 13.412108 9.9062506 13.515623 9.8750006 13.59375 9.8125 C 13.671873 9.7480476 13.707029 9.6328134 13.75 9.46875 C 13.806638 9.2578138 13.843748 8.8789079 13.84375 8.375 C 13.843748 7.8710964 13.832029 7.531253 13.78125 7.34375 C 13.730467 7.1543002 13.640623 7.0312535 13.5625 6.96875 C 13.486326 6.9043005 13.412108 6.8750036 13.3125 6.875 z "
     id="rect2983" />
</svg>
