<?xml version="1.0" encoding="UTF-8" standalone="no"?>
<!-- Created with Inkscape (http://www.inkscape.org/) -->

<svg
   xmlns:dc="http://purl.org/dc/elements/1.1/"
   xmlns:cc="http://creativecommons.org/ns#"
   xmlns:rdf="http://www.w3.org/1999/02/22-rdf-syntax-ns#"
   xmlns:svg="http://www.w3.org/2000/svg"
   xmlns="http://www.w3.org/2000/svg"
   xmlns:sodipodi="http://sodipodi.sourceforge.net/DTD/sodipodi-0.dtd"
   xmlns:inkscape="http://www.inkscape.org/namespaces/inkscape"
   id="svg7384"
   height="16"
   width="16"
   version="1.1"
   inkscape:version="0.48.3.1 r9886"
   sodipodi:docname="logitech-g930-symbolic.svg">
  <defs
     id="defs10" />
  <sodipodi:namedview
     pagecolor="#ffffff"
     bordercolor="#666666"
     borderopacity="1"
     objecttolerance="10"
     gridtolerance="10"
     guidetolerance="10"
     inkscape:pageopacity="0"
     inkscape:pageshadow="2"
     inkscape:window-width="1920"
     inkscape:window-height="1058"
     id="namedview8"
     showgrid="false"
     inkscape:zoom="14.75"
     inkscape:cx="-22.937889"
     inkscape:cy="8.2254677"
     inkscape:window-x="1920"
     inkscape:window-y="0"
     inkscape:window-maximized="1"
     inkscape:current-layer="svg7384" />
  <metadata
     id="metadata90">
    <rdf:RDF>
      <cc:Work
         rdf:about="">
        <dc:format>image/svg+xml</dc:format>
        <dc:type
           rdf:resource="http://purl.org/dc/dcmitype/StillImage" />
        <dc:title>Gnome Symbolic Icon Theme</dc:title>
      </cc:Work>
    </rdf:RDF>
  </metadata>
  <title
     id="title9167">Gnome Symbolic Icon Theme</title>
  <path
     style="fill:#bebebe;fill-opacity:1;stroke:none"
     d="M 2 1 C 0.892 1 0 1.892 0 3 L 0 13 C 0 14.108 0.892 15 2 15 L 14 15 C 15.108 15 16 14.108 16 13 L 16 3 C 16 1.892 15.108 1 14 1 L 2 1 z M 2.84375 3.59375 C 3.3155161 3.5937544 3.6730992 3.7104364 3.9375 3.9375 C 4.2036224 4.1625972 4.3927103 4.4761539 4.46875 4.875 L 3.6875 5.03125 C 3.6339262 4.8180068 3.5548629 4.6536726 3.40625 4.53125 C 3.2593598 4.4068599 3.0649432 4.3437537 2.84375 4.34375 C 2.5084986 4.3437537 2.2299789 4.4758896 2.03125 4.71875 C 1.8342465 4.961617 1.749999 5.3034229 1.75 5.78125 C 1.749999 6.2965971 1.8620403 6.6788414 2.0625 6.9375 C 2.262957 7.1941862 2.5188672 7.3437507 2.84375 7.34375 C 3.0044601 7.3437507 3.1517851 7.2898328 3.3125 7.21875 C 3.4749377 7.1456942 3.634215 7.0714251 3.75 6.96875 L 3.75 6.40625 L 2.84375 6.40625 L 2.84375 5.6875 L 4.5 5.6875 L 4.5 7.40625 C 4.3392839 7.5839557 4.1183686 7.7387595 3.8125 7.875 C 3.5083533 8.0092662 3.1877819 8.0937499 2.875 8.09375 C 2.4775374 8.0937499 2.1392521 8.0020523 1.84375 7.8125 C 1.5482457 7.6209736 1.3361152 7.3534368 1.1875 7 C 1.0388839 6.6445908 0.96874975 6.229122 0.96875 5.8125 C 0.96874975 5.3603414 1.052853 4.9764646 1.21875 4.625 C 1.384646 4.2735421 1.6178023 4.0000818 1.9375 3.8125 C 2.1811593 3.6683656 2.4808492 3.5937544 2.84375 3.59375 z M 6.28125 4.78125 C 6.6061293 4.7812532 6.8410136 4.8486505 7 4.9375 C 7.158982 5.0243811 7.2798082 5.1137622 7.34375 5.25 C 7.4094149 5.3842688 7.4374974 5.6386682 7.4375 6 L 7.4375 6.96875 C 7.4374974 7.2451812 7.4462822 7.4614588 7.46875 7.59375 C 7.4929406 7.7240675 7.5298079 7.8499379 7.59375 8 L 6.875 8 C 6.855989 7.944714 6.8401474 7.8898478 6.8125 7.78125 C 6.8004014 7.7318877 6.7864323 7.6720464 6.78125 7.65625 C 6.6568256 7.7944654 6.5167017 7.8996425 6.375 7.96875 C 6.2332952 8.0378576 6.0982112 8.0937499 5.9375 8.09375 C 5.6540923 8.0937499 5.414168 7.9882308 5.25 7.8125 C 5.0875592 7.6367696 5.0312498 7.424783 5.03125 7.15625 C 5.0312498 6.9785457 5.0506919 6.8257164 5.125 6.6875 C 5.1993075 6.5473117 5.3044365 6.4480582 5.4375 6.375 C 5.5722903 6.2999706 5.7789478 6.2115379 6.03125 6.15625 C 6.3716823 6.0831953 6.5874133 6.0319361 6.71875 5.96875 L 6.71875 5.875 C 6.7187481 5.7150675 6.6941218 5.5983855 6.625 5.53125 C 6.5558746 5.4621449 6.4418165 5.4375026 6.25 5.4375 C 6.1203919 5.4375026 6.0100786 5.4720174 5.9375 5.53125 C 5.8649192 5.588513 5.7949294 5.6663891 5.75 5.8125 L 5.09375 5.6875 C 5.1680576 5.3834291 5.2873 5.1461161 5.46875 5 C 5.6501987 4.8538899 5.9235341 4.7812532 6.28125 4.78125 z M 9.65625 4.78125 C 9.8325132 4.7812532 9.964141 4.823324 10.09375 4.90625 C 10.223354 4.9891822 10.323299 5.1134201 10.40625 5.28125 C 10.527214 5.1134201 10.672522 4.9891822 10.8125 4.90625 C 10.952472 4.823324 11.091012 4.7812532 11.25 4.78125 C 11.452183 4.7812532 11.641271 4.842727 11.78125 4.9375 C 11.921221 5.0303046 12.024622 5.1620985 12.09375 5.34375 C 12.14386 5.4780188 12.156246 5.6998778 12.15625 6 L 12.15625 8 L 11.4375 8 L 11.4375 6.21875 C 11.437496 5.9067806 11.393861 5.7158295 11.34375 5.625 C 11.276351 5.5065323 11.171222 5.4375026 11.03125 5.4375 C 10.929289 5.4375026 10.839858 5.4601704 10.75 5.53125 C 10.660136 5.6023345 10.602243 5.7055371 10.5625 5.84375 C 10.522751 5.9799928 10.499997 6.2038263 10.5 6.5 L 10.5 8 L 9.78125 8 L 9.78125 6.28125 C 9.781248 5.975204 9.7759194 5.7763549 9.75 5.6875 C 9.7240767 5.5986498 9.680297 5.5434415 9.625 5.5 C 9.5714274 5.4565635 9.4995652 5.4375026 9.40625 5.4375 C 9.2939226 5.4375026 9.1836093 5.4621449 9.09375 5.53125 C 9.0038881 5.60036 8.9459949 5.7134351 8.90625 5.84375 C 8.8682309 5.9740693 8.8437489 6.1666528 8.84375 6.46875 L 8.84375 8 L 8.125 8 L 8.125 4.875 L 8.78125 4.875 L 8.78125 5.28125 C 9.0214534 4.947562 9.3244551 4.7812532 9.65625 4.78125 z M 13.9375 4.78125 C 14.347056 4.7812532 14.669499 4.940006 14.90625 5.25 C 15.142996 5.558025 15.260366 6.0497374 15.25 6.6875 L 13.40625 6.6875 C 13.411433 6.934314 13.481423 7.1117857 13.59375 7.25 C 13.706075 7.3862414 13.832374 7.4687506 14 7.46875 C 14.114052 7.4687506 14.234734 7.4148327 14.3125 7.34375 C 14.390262 7.2726686 14.429002 7.1579611 14.46875 7 L 15.21875 7.15625 C 15.125431 7.4603241 14.952184 7.6838156 14.75 7.84375 C 14.549539 8.0017103 14.302414 8.0937499 14 8.09375 C 13.521318 8.0937499 13.167335 7.9198852 12.9375 7.5625 C 12.75605 7.2761978 12.6875 6.9051164 12.6875 6.46875 C 12.6875 5.9474832 12.792773 5.5442035 13.03125 5.25 C 13.269726 4.9538276 13.572872 4.7812532 13.9375 4.78125 z M 13.96875 5.4375 C 13.809764 5.4375026 13.697434 5.4927108 13.59375 5.625 C 13.490064 5.757294 13.435771 5.9291842 13.4375 6.15625 L 14.53125 6.15625 C 14.526064 5.9153627 14.447433 5.749396 14.34375 5.625 C 14.240063 5.4986343 14.117364 5.4375026 13.96875 5.4375 z M 6.71875 6.5 C 6.6254313 6.5355425 6.4834349 6.5756388 6.28125 6.625 C 6.0790621 6.6743639 5.9684601 6.7338632 5.90625 6.78125 C 5.8112041 6.8582568 5.7499991 6.9440309 5.75 7.0625 C 5.7499991 7.1789965 5.7989631 7.2900971 5.875 7.375 C 5.9510349 7.4599042 6.0387386 7.5000005 6.15625 7.5 C 6.2875834 7.5000005 6.4120102 7.4424757 6.53125 7.34375 C 6.6193808 7.2687196 6.6598487 7.1710985 6.6875 7.0625 C 6.7065071 6.9914189 6.7187481 6.855676 6.71875 6.65625 L 6.71875 6.5 z M 1.375 8.34375 L 2.625 8.34375 C 3.0915824 8.3437543 3.3895442 8.3628152 3.53125 8.40625 C 3.7489867 8.4714128 3.9156094 8.6245842 4.0625 8.84375 C 4.2093845 9.060949 4.2812467 9.3419653 4.28125 9.6875 C 4.2812467 9.9540607 4.2409232 10.162098 4.15625 10.34375 C 4.0715705 10.525406 3.9750819 10.676603 3.84375 10.78125 C 3.7141405 10.883926 3.5722885 10.935185 3.4375 10.96875 C 3.2543201 11.010216 3.0035942 11.031252 2.65625 11.03125 L 2.15625 11.03125 L 2.15625 12.6875 L 1.375 12.6875 L 1.375 8.34375 z M 14.0625 8.34375 L 14.8125 8.34375 L 14.8125 12.6875 L 14.0625 12.6875 L 14.0625 8.34375 z M 2.15625 9.0625 L 2.15625 10.3125 L 2.5625 10.3125 C 2.864914 10.312502 3.0855406 10.295416 3.1875 10.25 C 3.2894551 10.204589 3.3492206 10.128003 3.40625 10.03125 C 3.4650026 9.9345021 3.4999975 9.8158456 3.5 9.6875 C 3.4999975 9.5295429 3.4562178 9.4151775 3.375 9.3125 C 3.2937774 9.2098293 3.1869203 9.1194221 3.0625 9.09375 C 2.9709092 9.0740086 2.8077427 9.0625036 2.53125 9.0625 L 2.15625 9.0625 z M 6 9.46875 C 6.3248793 9.4687532 6.5597636 9.5049005 6.71875 9.59375 C 6.877732 9.6806311 6.9985582 9.8012622 7.0625 9.9375 C 7.1281649 10.071769 7.1562474 10.326168 7.15625 10.6875 L 7.15625 11.65625 C 7.1562474 11.932681 7.1650322 12.117709 7.1875 12.25 C 7.2116906 12.380318 7.2485579 12.537438 7.3125 12.6875 L 6.59375 12.6875 C 6.574739 12.632214 6.5588974 12.546098 6.53125 12.4375 C 6.5191514 12.388138 6.5051823 12.359546 6.5 12.34375 C 6.3755756 12.481965 6.2354517 12.587142 6.09375 12.65625 C 5.9520452 12.725358 5.8169612 12.75 5.65625 12.75 C 5.3728423 12.75 5.132918 12.675731 4.96875 12.5 C 4.8063092 12.32427 4.7187498 12.081033 4.71875 11.8125 C 4.7187498 11.634796 4.7694419 11.481966 4.84375 11.34375 C 4.9180575 11.203562 5.0231865 11.104308 5.15625 11.03125 C 5.2910403 10.956221 5.4664478 10.899038 5.71875 10.84375 C 6.0591823 10.770695 6.3061633 10.688186 6.4375 10.625 L 6.4375 10.5625 C 6.4374981 10.402568 6.4128718 10.285886 6.34375 10.21875 C 6.2746246 10.149645 6.1293165 10.093753 5.9375 10.09375 C 5.8078919 10.093753 5.7288286 10.128267 5.65625 10.1875 C 5.5836692 10.244763 5.5136794 10.353889 5.46875 10.5 L 4.8125 10.375 C 4.8868076 10.070929 5.00605 9.8336161 5.1875 9.6875 C 5.3689487 9.5413899 5.6422841 9.4687532 6 9.46875 z M 9.46875 9.46875 C 9.6294603 9.4687532 9.7731848 9.4953701 9.90625 9.5625 C 10.03931 9.6276617 10.120102 9.7098288 10.1875 9.8125 C 10.256621 9.9151769 10.317826 10.025935 10.34375 10.15625 C 10.371397 10.28657 10.374997 10.475888 10.375 10.71875 L 10.375 12.6875 L 9.65625 12.6875 L 9.65625 11.0625 C 9.6562478 10.722887 9.6248535 10.504977 9.59375 10.40625 C 9.5626423 10.305553 9.5083497 10.242789 9.4375 10.1875 C 9.3683745 10.132216 9.2859994 10.093753 9.1875 10.09375 C 9.0613478 10.093753 8.9752278 10.139772 8.875 10.21875 C 8.7747695 10.297733 8.6942668 10.400935 8.65625 10.53125 C 8.619959 10.661569 8.5937489 10.89854 8.59375 11.25 L 8.59375 12.6875 L 7.875 12.6875 L 7.875 9.53125 L 8.5625 9.53125 L 8.5625 10 C 8.8027033 9.6445924 9.1041213 9.4687532 9.46875 9.46875 z M 12.15625 9.46875 C 12.565806 9.4687532 12.919499 9.627506 13.15625 9.9375 C 13.392996 10.245525 13.479116 10.705987 13.46875 11.34375 L 11.65625 11.34375 C 11.661433 11.590564 11.731423 11.799286 11.84375 11.9375 C 11.956075 12.073741 12.082374 12.125001 12.25 12.125 C 12.364052 12.125001 12.453484 12.102333 12.53125 12.03125 C 12.609012 11.960169 12.679002 11.845461 12.71875 11.6875 L 13.4375 11.8125 C 13.344181 12.116574 13.202184 12.371316 13 12.53125 C 12.799539 12.68921 12.552414 12.75 12.25 12.75 C 11.771318 12.75 11.417335 12.576135 11.1875 12.21875 C 11.00605 11.932448 10.90625 11.561366 10.90625 11.125 C 10.90625 10.603733 11.042773 10.200453 11.28125 9.90625 C 11.519726 9.6100776 11.791622 9.4687532 12.15625 9.46875 z M 12.21875 10.09375 C 12.059764 10.093753 11.916184 10.180211 11.8125 10.3125 C 11.708814 10.444794 11.654521 10.616684 11.65625 10.84375 L 12.75 10.84375 C 12.744814 10.602863 12.697433 10.405646 12.59375 10.28125 C 12.490063 10.154884 12.367364 10.093753 12.21875 10.09375 z M 6.4375 11.1875 C 6.3441813 11.223043 6.2021849 11.263139 6 11.3125 C 5.7978121 11.361864 5.6559601 11.390113 5.59375 11.4375 C 5.4987041 11.514507 5.4687491 11.631531 5.46875 11.75 C 5.4687491 11.866497 5.4864631 11.946347 5.5625 12.03125 C 5.6385349 12.116154 5.7574886 12.156251 5.875 12.15625 C 6.0063334 12.156251 6.1307602 12.129976 6.25 12.03125 C 6.3381308 11.95622 6.3785987 11.858599 6.40625 11.75 C 6.4252571 11.678919 6.4374981 11.543176 6.4375 11.34375 L 6.4375 11.1875 z "
     id="rect2984" />
  <path
     style="fill:#aad400;fill-opacity:1;stroke:none"
     d="m -58.203389,-9.5084746 c -1.108,0 -2,0.892 -2,2 l 0,9.9999998 c 0,1.1080005 0.892,2.0000005 2,2.0000005 l 12,0 c 1.108,0 2,-0.892 2,-2.0000005 l 0,-9.9999998 c 0,-1.108 -0.892,-2 -2,-2 l -12,0 z m 2.5625,5.125 c 0.5332,4.4e-6 0.951168,0.1191449 1.25,0.34375 0.300777,0.2226601 0.507808,0.5429723 0.59375,0.9375 l -0.875,0.15625 c -0.06055,-0.2109343 -0.175785,-0.3789029 -0.34375,-0.5 -0.166019,-0.1230433 -0.375003,-0.1874964 -0.625,-0.1875 -0.378908,3.6e-6 -0.681642,0.1347691 -0.90625,0.375 -0.222658,0.2402374 -0.312501,0.5898464 -0.3125,1.0625 -10e-7,0.5097673 0.117186,0.9003919 0.34375,1.15625 0.226561,0.25390701 0.50781,0.37500071 0.875,0.37500001 0.181638,7e-7 0.380857,-0.023437 0.5625,-0.09375 0.183591,-0.072265 0.337887,-0.1796866 0.46875,-0.28125001 l 0,-0.53125 -1,0 0,-0.71875 1.875,0 0,1.68750001 c -0.181645,0.175782 -0.466801,0.333985 -0.8125,0.46875001 -0.343753,0.13281199695 -0.677737,0.21875 -1.03125,0.21875 -0.449221,0 -0.853517,-0.09375 -1.1875,-0.28125 -0.333985,-0.18945301 -0.582032,-0.46289001 -0.75,-0.81250002 -0.167969,-0.3515611 -0.25,-0.7441389 -0.25,-1.15625 0,-0.447263 0.09375,-0.8398407 0.28125,-1.1875 0.187499,-0.3476525 0.482421,-0.6269492 0.84375,-0.8125 0.275389,-0.1425738 0.589842,-0.2187456 1,-0.21875 z m 3.9375,0.0625 0.6875,0 0,4.31250002 -0.84375,0 0,-3.09375002 c -0.300783,0.2812528 -0.654298,0.490237 -1.0625,0.625 l 0,-0.75 c 0.214843,-0.070309 0.466796,-0.2109341 0.71875,-0.40625 0.251952,-0.1972618 0.406248,-0.4257772 0.5,-0.6875 z m 3.21875,0 c 0.435545,4.3e-6 0.814451,0.1621135 1.09375,0.5 0.279294,0.335941 0.406247,0.9160185 0.40625,1.6875 -3e-6,0.7851576 -0.146487,1.33984451 -0.4375,1.68750001 -0.291018,0.34765601 -0.658205,0.53125001 -1.125,0.53125001 -0.335939,0 -0.60547,-0.103516 -0.8125,-0.28125 -0.207032,-0.17968701 -0.347657,-0.45703061 -0.40625,-0.81250002 l 0.78125,-0.0625 c 0.01953,0.16211031 0.07422,0.26562581 0.15625,0.34375001 0.08203,0.078126 0.208983,0.1250006 0.34375,0.125 0.16992,6e-7 0.318358,-0.093749 0.4375,-0.25 0.119139,-0.15624901 0.185545,-0.47656121 0.21875,-0.96875001 -0.207033,0.2402359 -0.470705,0.3750015 -0.78125,0.375 -0.337892,1.5e-6 -0.628907,-0.1464828 -0.875,-0.40625 -0.244141,-0.2617166 -0.375,-0.5820288 -0.375,-1 0,-0.4355436 0.148437,-0.7968714 0.40625,-1.0625 0.259765,-0.2675739 0.568358,-0.4062457 0.96875,-0.40625 z m -0.03125,0.6875 c -0.152345,3.6e-6 -0.273439,0.06641 -0.375,0.1875 -0.09961,0.119144 -0.156251,0.3203156 -0.15625,0.59375 -10e-7,0.2773463 0.04687,0.462893 0.15625,0.59375 0.109374,0.1289084 0.242186,0.2187521 0.40625,0.21875 0.158201,2.1e-6 0.298826,-0.062498 0.40625,-0.1875 0.109373,-0.1249976 0.156248,-0.32031 0.15625,-0.5625 -2e-6,-0.2656219 -0.0332,-0.4785124 -0.15625,-0.625 -0.121096,-0.1464808 -0.277345,-0.2187464 -0.4375,-0.21875 z"
     id="rect2983"
     inkscape:connector-curvature="0" />
</svg>
