<?xml version="1.0" encoding="UTF-8" standalone="no"?>
<!-- Created with Inkscape (http://www.inkscape.org/) -->

<svg
   xmlns:dc="http://purl.org/dc/elements/1.1/"
   xmlns:cc="http://creativecommons.org/ns#"
   xmlns:rdf="http://www.w3.org/1999/02/22-rdf-syntax-ns#"
   xmlns:svg="http://www.w3.org/2000/svg"
   xmlns="http://www.w3.org/2000/svg"
   xmlns:sodipodi="http://sodipodi.sourceforge.net/DTD/sodipodi-0.dtd"
   xmlns:inkscape="http://www.inkscape.org/namespaces/inkscape"
   id="svg7384"
   height="16"
   width="16"
   version="1.1"
   inkscape:version="0.48.3.1 r9886"
   sodipodi:docname="logitech-g35-symbolic.svg">
  <defs
     id="defs10" />
  <sodipodi:namedview
     pagecolor="#ffffff"
     bordercolor="#666666"
     borderopacity="1"
     objecttolerance="10"
     gridtolerance="10"
     guidetolerance="10"
     inkscape:pageopacity="0"
     inkscape:pageshadow="2"
     inkscape:window-width="1920"
     inkscape:window-height="1058"
     id="namedview8"
     showgrid="false"
     inkscape:zoom="14.75"
     inkscape:cx="-22.937889"
     inkscape:cy="8.2254677"
     inkscape:window-x="1920"
     inkscape:window-y="0"
     inkscape:window-maximized="1"
     inkscape:current-layer="svg7384" />
  <metadata
     id="metadata90">
    <rdf:RDF>
      <cc:Work
         rdf:about="">
        <dc:format>image/svg+xml</dc:format>
        <dc:type
           rdf:resource="http://purl.org/dc/dcmitype/StillImage" />
        <dc:title>Gnome Symbolic Icon Theme</dc:title>
      </cc:Work>
    </rdf:RDF>
  </metadata>
  <title
     id="title9167">Gnome Symbolic Icon Theme</title>
  <path
     style="fill:#bebebe;fill-opacity:1;stroke:none"
     d="M 2 1 C 0.892 1 0 1.892 0 3 L 0 13 C 0 14.108 0.892 15 2 15 L 14 15 C 15.108 15 16 14.108 16 13 L 16 3 C 16 1.892 15.108 1 14 1 L 2 1 z M 2.96875 6.0625 C 3.5019502 6.0625044 3.9199185 6.1816449 4.21875 6.40625 C 4.5195273 6.6289101 4.6953083 6.9492223 4.78125 7.34375 L 3.9375 7.5 C 3.8769498 7.2890657 3.7617155 7.1210971 3.59375 7 C 3.4277315 6.8769567 3.2187473 6.8125036 2.96875 6.8125 C 2.5898417 6.8125036 2.2871076 6.9472691 2.0625 7.1875 C 1.8398425 7.4277374 1.7187488 7.7773464 1.71875 8.25 C 1.7187488 8.7597673 1.8359362 9.1503919 2.0625 9.40625 C 2.2890608 9.660157 2.6015605 9.7812507 2.96875 9.78125 C 3.150388 9.7812507 3.3183566 9.7265632 3.5 9.65625 C 3.6835906 9.5839852 3.8378873 9.5078134 3.96875 9.40625 L 3.96875 8.875 L 2.96875 8.875 L 2.96875 8.125 L 4.84375 8.125 L 4.84375 9.84375 C 4.6621053 10.019532 4.4081993 10.177735 4.0625 10.3125 C 3.7187468 10.445312 3.3535128 10.5 3 10.5 C 2.5507792 10.5 2.1777327 10.40625 1.84375 10.21875 C 1.5097647 10.029297 1.261718 9.78711 1.09375 9.4375 C 0.92578088 9.0859389 0.84374971 8.6933611 0.84375 8.28125 C 0.84374971 7.833987 0.93749962 7.4414093 1.125 7.09375 C 1.3124992 6.7460975 1.5761708 6.4668008 1.9375 6.28125 C 2.212889 6.1386762 2.5585917 6.0625044 2.96875 6.0625 z M 10.25 6.125 L 10.90625 6.125 L 10.90625 10.4375 L 10.09375 10.4375 L 10.09375 7.34375 C 9.7929675 7.6250028 9.4394522 7.833987 9.03125 7.96875 L 9.03125 7.21875 C 9.2460931 7.1484408 9.466796 7.0078159 9.71875 6.8125 C 9.9707017 6.6152382 10.156248 6.3867228 10.25 6.125 z M 13.53125 6.125 C 13.947264 6.1250043 14.265623 6.2656292 14.5 6.5625 C 14.779294 6.914066 14.937497 7.4980498 14.9375 8.3125 C 14.937497 9.1250013 14.781247 9.707032 14.5 10.0625 C 14.267576 10.355469 13.947264 10.5 13.53125 10.5 C 13.11328 10.5 12.787108 10.351563 12.53125 10.03125 C 12.27539 9.7089851 12.125 9.1367201 12.125 8.3125 C 12.125 7.5039092 12.28125 6.9179723 12.5625 6.5625 C 12.794921 6.2695354 13.115233 6.1250043 13.53125 6.125 z M 6 6.21875 L 8.1875 6.21875 L 8.1875 6.96875 L 6.625 6.96875 L 6.5 7.71875 C 6.6835923 7.626956 6.8710921 7.5625029 7.0625 7.5625 C 7.4277322 7.5625029 7.7148412 7.7031277 7.96875 7.96875 C 8.2226532 8.2343772 8.3749968 8.5761737 8.375 9 C 8.3749968 9.3535167 8.2675751 9.660157 8.0625 9.9375 C 7.7832006 10.316406 7.4023416 10.5 6.90625 10.5 C 6.5097643 10.5 6.187499 10.400391 5.9375 10.1875 C 5.6874995 9.9746098 5.5175778 9.7031257 5.46875 9.34375 L 6.28125 9.25 C 6.3046864 9.4355479 6.3847644 9.5781259 6.5 9.6875 C 6.615233 9.7949225 6.7558578 9.8437506 6.90625 9.84375 C 7.0781231 9.8437506 7.2246074 9.7949225 7.34375 9.65625 C 7.4628884 9.5156259 7.4999977 9.2812511 7.5 9 C 7.4999977 8.7363298 7.4628884 8.5683613 7.34375 8.4375 C 7.2265605 8.3046897 7.0644513 8.2187522 6.875 8.21875 C 6.6386704 8.2187522 6.4374988 8.3222677 6.25 8.53125 L 5.5625 8.4375 L 6 6.21875 z M 13.53125 6.8125 C 13.431639 6.8125036 13.359374 6.8418005 13.28125 6.90625 C 13.203124 6.9687535 13.136718 7.0859409 13.09375 7.25 C 13.037108 7.4628936 12.999999 7.8085964 13 8.3125 C 12.999999 8.8164079 13.011718 9.1855481 13.0625 9.375 C 13.11328 9.5625009 13.205077 9.6875008 13.28125 9.75 C 13.359374 9.8125006 13.431639 9.8437506 13.53125 9.84375 C 13.630858 9.8437506 13.734373 9.8125006 13.8125 9.75 C 13.890623 9.6855476 13.925779 9.5703134 13.96875 9.40625 C 14.025388 9.1953138 14.062498 8.8164079 14.0625 8.3125 C 14.062498 7.8085964 14.050779 7.468753 14 7.28125 C 13.949217 7.0918002 13.890623 6.9687535 13.8125 6.90625 C 13.736326 6.8418005 13.630858 6.8125036 13.53125 6.8125 z "
     id="rect2984" />
  <path
     style="fill:#aad400;fill-opacity:1;stroke:none"
     d="m -58.203389,-9.5084746 c -1.108,0 -2,0.892 -2,2 l 0,9.9999998 c 0,1.1080005 0.892,2.0000005 2,2.0000005 l 12,0 c 1.108,0 2,-0.892 2,-2.0000005 l 0,-9.9999998 c 0,-1.108 -0.892,-2 -2,-2 l -12,0 z m 2.5625,5.125 c 0.5332,4.4e-6 0.951168,0.1191449 1.25,0.34375 0.300777,0.2226601 0.507808,0.5429723 0.59375,0.9375 l -0.875,0.15625 c -0.06055,-0.2109343 -0.175785,-0.3789029 -0.34375,-0.5 -0.166019,-0.1230433 -0.375003,-0.1874964 -0.625,-0.1875 -0.378908,3.6e-6 -0.681642,0.1347691 -0.90625,0.375 -0.222658,0.2402374 -0.312501,0.5898464 -0.3125,1.0625 -10e-7,0.5097673 0.117186,0.9003919 0.34375,1.15625 0.226561,0.25390701 0.50781,0.37500071 0.875,0.37500001 0.181638,7e-7 0.380857,-0.023437 0.5625,-0.09375 0.183591,-0.072265 0.337887,-0.1796866 0.46875,-0.28125001 l 0,-0.53125 -1,0 0,-0.71875 1.875,0 0,1.68750001 c -0.181645,0.175782 -0.466801,0.333985 -0.8125,0.46875001 -0.343753,0.13281199695 -0.677737,0.21875 -1.03125,0.21875 -0.449221,0 -0.853517,-0.09375 -1.1875,-0.28125 -0.333985,-0.18945301 -0.582032,-0.46289001 -0.75,-0.81250002 -0.167969,-0.3515611 -0.25,-0.7441389 -0.25,-1.15625 0,-0.447263 0.09375,-0.8398407 0.28125,-1.1875 0.187499,-0.3476525 0.482421,-0.6269492 0.84375,-0.8125 0.275389,-0.1425738 0.589842,-0.2187456 1,-0.21875 z m 3.9375,0.0625 0.6875,0 0,4.31250002 -0.84375,0 0,-3.09375002 c -0.300783,0.2812528 -0.654298,0.490237 -1.0625,0.625 l 0,-0.75 c 0.214843,-0.070309 0.466796,-0.2109341 0.71875,-0.40625 0.251952,-0.1972618 0.406248,-0.4257772 0.5,-0.6875 z m 3.21875,0 c 0.435545,4.3e-6 0.814451,0.1621135 1.09375,0.5 0.279294,0.335941 0.406247,0.9160185 0.40625,1.6875 -3e-6,0.7851576 -0.146487,1.33984451 -0.4375,1.68750001 -0.291018,0.34765601 -0.658205,0.53125001 -1.125,0.53125001 -0.335939,0 -0.60547,-0.103516 -0.8125,-0.28125 -0.207032,-0.17968701 -0.347657,-0.45703061 -0.40625,-0.81250002 l 0.78125,-0.0625 c 0.01953,0.16211031 0.07422,0.26562581 0.15625,0.34375001 0.08203,0.078126 0.208983,0.1250006 0.34375,0.125 0.16992,6e-7 0.318358,-0.093749 0.4375,-0.25 0.119139,-0.15624901 0.185545,-0.47656121 0.21875,-0.96875001 -0.207033,0.2402359 -0.470705,0.3750015 -0.78125,0.375 -0.337892,1.5e-6 -0.628907,-0.1464828 -0.875,-0.40625 -0.244141,-0.2617166 -0.375,-0.5820288 -0.375,-1 0,-0.4355436 0.148437,-0.7968714 0.40625,-1.0625 0.259765,-0.2675739 0.568358,-0.4062457 0.96875,-0.40625 z m -0.03125,0.6875 c -0.152345,3.6e-6 -0.273439,0.06641 -0.375,0.1875 -0.09961,0.119144 -0.156251,0.3203156 -0.15625,0.59375 -10e-7,0.2773463 0.04687,0.462893 0.15625,0.59375 0.109374,0.1289084 0.242186,0.2187521 0.40625,0.21875 0.158201,2.1e-6 0.298826,-0.062498 0.40625,-0.1875 0.109373,-0.1249976 0.156248,-0.32031 0.15625,-0.5625 -2e-6,-0.2656219 -0.0332,-0.4785124 -0.15625,-0.625 -0.121096,-0.1464808 -0.277345,-0.2187464 -0.4375,-0.21875 z"
     id="rect2983"
     inkscape:connector-curvature="0" />
</svg>
