<?xml version="1.0" encoding="UTF-8" standalone="no"?>
<!-- Created with Inkscape (http://www.inkscape.org/) -->

<svg
   xmlns:dc="http://purl.org/dc/elements/1.1/"
   xmlns:cc="http://creativecommons.org/ns#"
   xmlns:rdf="http://www.w3.org/1999/02/22-rdf-syntax-ns#"
   xmlns:svg="http://www.w3.org/2000/svg"
   xmlns="http://www.w3.org/2000/svg"
   xmlns:sodipodi="http://sodipodi.sourceforge.net/DTD/sodipodi-0.dtd"
   xmlns:inkscape="http://www.inkscape.org/namespaces/inkscape"
   version="1.0"
   width="16"
   height="16"
   id="svg2"
   inkscape:version="0.48.0 r9654"
   sodipodi:docname="logitech-g-keyboard-panel.svg">
  <metadata
     id="metadata10">
    <rdf:RDF>
      <cc:Work
         rdf:about="">
        <dc:format>image/svg+xml</dc:format>
        <dc:type
           rdf:resource="http://purl.org/dc/dcmitype/StillImage" />
        <dc:title />
      </cc:Work>
    </rdf:RDF>
  </metadata>
  <sodipodi:namedview
     pagecolor="#ffffff"
     bordercolor="#666666"
     borderopacity="1"
     objecttolerance="10"
     gridtolerance="10"
     guidetolerance="10"
     inkscape:pageopacity="0"
     inkscape:pageshadow="2"
     inkscape:window-width="1168"
     inkscape:window-height="776"
     id="namedview8"
     showgrid="false"
     inkscape:zoom="22"
     inkscape:cx="7.7833808"
     inkscape:cy="12.916016"
     inkscape:window-x="702"
     inkscape:window-y="47"
     inkscape:window-maximized="0"
     inkscape:current-layer="svg2" />
  <defs
     id="defs4" />
  <path
     style="fill:#606060;fill-opacity:1;stroke:none"
     d="M 3.7142857,2 C 2.7645714,2 2,2.7645714 2,3.7142857 L 2,12.285714 C 2,13.235429 2.7645714,14 3.7142857,14 l 8.5714283,0 C 13.235429,14 14,13.235429 14,12.285714 L 14,3.7142857 C 14,2.7645714 13.235429,2 12.285714,2 L 3.7142857,2 z m 4.5535714,1.7142857 c 1.1378493,8.4e-6 2.0140789,0.2093938 2.6517859,0.6428572 0.641858,0.4297095 1.075529,1.0332474 1.258928,1.7946428 L 10.330357,6.4732143 C 10.201143,6.0661341 9.9655811,5.7426327 9.6071429,5.5089286 9.2528593,5.2714685 8.8013515,5.1339356 8.2678571,5.1339286 c -0.8085903,7e-6 -1.4492586,0.2328092 -1.9285714,0.6964285 -0.4751512,0.463632 -0.7232168,1.1503303 -0.7232143,2.0625 -2.5e-6,0.9837952 0.2397271,1.7294359 0.7232143,2.2232139 0.4834807,0.490014 1.1182032,0.750002 1.9017857,0.75 0.3876156,2e-6 0.7909444,-0.07859 1.1785715,-0.214285 0.391782,-0.139463 0.7118111,-0.312923 0.9910711,-0.508929 l 0,-1.044643 -2.1160711,0 0,-1.3928569 3.9910711,0 0,3.2946429 c -0.38763,0.339239 -0.949777,0.650632 -1.6875,0.910714 -0.7335691,0.256314 -1.4688176,0.375 -2.223214,0.375 -0.9586372,0 -1.8051379,-0.173859 -2.5178571,-0.535714 C 5.1444181,11.384377 4.6084439,10.844352 4.25,10.169643 3.8915538,9.491168 3.7142851,8.7685437 3.7142857,7.9732143 3.7142851,7.1100455 3.9034456,6.3405872 4.3035714,5.6696429 4.7036949,4.9987115 5.3003521,4.4741643 6.0714286,4.1160714 6.6591087,3.8409195 7.3925794,3.7142941 8.2678571,3.7142857 z"
     id="rect2987"
     inkscape:connector-curvature="0" />
</svg>
