<?xml version="1.0" encoding="UTF-8" standalone="no"?>
<!-- Created with Inkscape (http://www.inkscape.org/) -->

<svg
   xmlns:dc="http://purl.org/dc/elements/1.1/"
   xmlns:cc="http://creativecommons.org/ns#"
   xmlns:rdf="http://www.w3.org/1999/02/22-rdf-syntax-ns#"
   xmlns:svg="http://www.w3.org/2000/svg"
   xmlns="http://www.w3.org/2000/svg"
   xmlns:sodipodi="http://sodipodi.sourceforge.net/DTD/sodipodi-0.dtd"
   xmlns:inkscape="http://www.inkscape.org/namespaces/inkscape"
   version="1.0"
   width="22"
   height="22"
   id="svg2"
   inkscape:version="0.48.0 r9654"
   sodipodi:docname="logitech-g-keyboard-panel.svg">
  <metadata
     id="metadata10">
    <rdf:RDF>
      <cc:Work
         rdf:about="">
        <dc:format>image/svg+xml</dc:format>
        <dc:type
           rdf:resource="http://purl.org/dc/dcmitype/StillImage" />
        <dc:title />
      </cc:Work>
    </rdf:RDF>
  </metadata>
  <sodipodi:namedview
     pagecolor="#ffffff"
     bordercolor="#666666"
     borderopacity="1"
     objecttolerance="10"
     gridtolerance="10"
     guidetolerance="10"
     inkscape:pageopacity="0"
     inkscape:pageshadow="2"
     inkscape:window-width="1168"
     inkscape:window-height="776"
     id="namedview8"
     showgrid="false"
     inkscape:zoom="22"
     inkscape:cx="7.7833808"
     inkscape:cy="13.461471"
     inkscape:window-x="2131"
     inkscape:window-y="0"
     inkscape:window-maximized="0"
     inkscape:current-layer="svg2" />
  <defs
     id="defs4" />
  <path
     style="fill:#606060;fill-opacity:1;stroke:none"
     d="M 5.2857142,3 C 4.0194286,3 3,4.0194286 3,5.2857143 L 3,16.714286 C 3,17.980572 4.0194286,19 5.2857142,19 L 16.714286,19 C 17.980571,19 19,17.980572 19,16.714286 L 19,5.2857143 C 19,4.0194286 17.980571,3 16.714286,3 L 5.2857142,3 z m 6.0714288,2.2857143 c 1.517132,1.12e-5 2.685438,0.2791918 3.535715,0.8571428 0.85581,0.5729463 1.434039,1.3776628 1.678571,2.3928569 L 14.107142,8.964286 C 13.934857,8.421512 13.620775,7.9901772 13.142857,7.6785714 c -0.472378,-0.3166138 -1.074388,-0.4999908 -1.785714,-0.5 -1.078121,9.2e-6 -1.9323452,0.3104125 -2.5714287,0.9285716 -0.6335351,0.618176 -0.9642891,1.533774 -0.9642858,2.75 -3.3e-6,1.311727 0.3196361,2.305914 0.9642858,2.964285 0.6446408,0.653352 1.4909377,1.000003 2.5357137,1 0.516822,3e-6 1.054592,-0.104788 1.571429,-0.285713 0.522376,-0.185952 0.949081,-0.417231 1.321428,-0.678572 l 0,-1.392858 -2.821428,0 0,-1.857142 5.321429,0 0,4.392857 c -0.516841,0.452319 -1.266371,0.86751 -2.250001,1.214286 -0.978092,0.341752 -1.958423,0.5 -2.964286,0.5 -1.278182,0 -2.4068496,-0.231813 -3.3571419,-0.714285 C 7.1925574,15.512503 6.4779251,14.792469 6,13.892857 5.5220717,12.988224 5.2857134,12.024725 5.2857142,10.964286 5.2857134,9.813394 5.5379274,8.787449 6.0714285,7.8928572 6.6049264,6.9982823 7.4004695,6.2988857 8.4285713,5.8214285 9.2121448,5.4545593 10.190106,5.2857255 11.357143,5.2857143 z"
     id="rect2987"
     inkscape:connector-curvature="0" />
</svg>
