<?xml version="1.0" encoding="UTF-8" standalone="no"?>
<!-- Created with Inkscape (http://www.inkscape.org/) -->

<svg
   xmlns:dc="http://purl.org/dc/elements/1.1/"
   xmlns:cc="http://creativecommons.org/ns#"
   xmlns:rdf="http://www.w3.org/1999/02/22-rdf-syntax-ns#"
   xmlns:svg="http://www.w3.org/2000/svg"
   xmlns="http://www.w3.org/2000/svg"
   xmlns:xlink="http://www.w3.org/1999/xlink"
   xmlns:sodipodi="http://sodipodi.sourceforge.net/DTD/sodipodi-0.dtd"
   xmlns:inkscape="http://www.inkscape.org/namespaces/inkscape"
   width="24"
   height="24"
   id="svg2"
   version="1.1"
   inkscape:version="0.48.0 r9654"
   sodipodi:docname="logitech-g-keyboard-error-panel.svg">
  <defs
     id="defs4">
    <linearGradient
       inkscape:collect="always"
       id="linearGradient15383">
      <stop
         style="stop-color:#000000;stop-opacity:1;"
         offset="0"
         id="stop15385" />
      <stop
         style="stop-color:#000000;stop-opacity:0;"
         offset="1"
         id="stop15387" />
    </linearGradient>
    <linearGradient
       gradientTransform="translate(-24.361257,-3.561305)"
       gradientUnits="userSpaceOnUse"
       xlink:href="#linearGradient3587-6-5"
       id="linearGradient2401"
       y2="18.561304"
       x2="32.361256"
       y1="4.561305"
       x1="32.361256" />
    <linearGradient
       id="linearGradient3587-6-5">
      <stop
         offset="0"
         style="stop-color:#000000;stop-opacity:1"
         id="stop3589-9-2" />
      <stop
         offset="1"
         style="stop-color:#363636;stop-opacity:1"
         id="stop3591-7-4" />
    </linearGradient>
    <linearGradient
       inkscape:collect="always"
       xlink:href="#linearGradient3587-6-5"
       id="linearGradient15268"
       gradientUnits="userSpaceOnUse"
       gradientTransform="translate(-24.361257,-2.5792516)"
       x1="32.361256"
       y1="4.561305"
       x2="32.361256"
       y2="18.561304" />
    <linearGradient
       inkscape:collect="always"
       xlink:href="#linearGradient3187"
       id="linearGradient15359"
       x1="7.8707113"
       y1="1039.3387"
       x2="7.8707113"
       y2="1049.3208"
       gradientUnits="userSpaceOnUse" />
    <linearGradient
       gradientTransform="translate(-1.9999384,-1)"
       gradientUnits="userSpaceOnUse"
       xlink:href="#linearGradient3187"
       id="linearGradient3190"
       y2="21"
       x2="9"
       y1="3"
       x1="9" />
    <linearGradient
       id="linearGradient3187">
      <stop
         offset="0"
         style="stop-color:#a60000;stop-opacity:1"
         id="stop3189" />
      <stop
         offset="1"
         style="stop-color:#ff1313;stop-opacity:1"
         id="stop3191" />
    </linearGradient>
    <linearGradient
       inkscape:collect="always"
       xlink:href="#linearGradient15383"
       id="linearGradient15389"
       x1="3.891"
       y1="1044.3623"
       x2="12.109"
       y2="1044.3623"
       gradientUnits="userSpaceOnUse" />
    <linearGradient
       inkscape:collect="always"
       xlink:href="#linearGradient3187-4"
       id="linearGradient15359-6"
       x1="7.8707113"
       y1="1039.3387"
       x2="7.8707113"
       y2="1049.3208"
       gradientUnits="userSpaceOnUse" />
    <linearGradient
       id="linearGradient3187-4">
      <stop
         offset="0"
         style="stop-color:#a60000;stop-opacity:1"
         id="stop3189-3" />
      <stop
         offset="1"
         style="stop-color:#ff1313;stop-opacity:1"
         id="stop3191-3" />
    </linearGradient>
    <linearGradient
       inkscape:collect="always"
       xlink:href="#linearGradient3187-4"
       id="linearGradient14386"
       x1="7.8707113"
       y1="1039.3387"
       x2="7.8707113"
       y2="1049.3208"
       gradientUnits="userSpaceOnUse" />
    <linearGradient
       id="linearGradient14388">
      <stop
         offset="0"
         style="stop-color:#a60000;stop-opacity:1"
         id="stop14390" />
      <stop
         offset="1"
         style="stop-color:#ff1313;stop-opacity:1"
         id="stop14392" />
    </linearGradient>
    <linearGradient
       gradientTransform="translate(16,0.98196006)"
       y2="1049.3208"
       x2="7.8707113"
       y1="1039.3387"
       x1="7.8707113"
       gradientUnits="userSpaceOnUse"
       id="linearGradient14396"
       xlink:href="#linearGradient3187-4"
       inkscape:collect="always" />
    <linearGradient
       inkscape:collect="always"
       xlink:href="#linearGradient14388"
       id="linearGradient15232"
       x1="7.8573594"
       y1="1038.9584"
       x2="7.8573594"
       y2="1049.3608"
       gradientUnits="userSpaceOnUse"
       gradientTransform="matrix(1.5318789,0,0,1.5318789,-0.48723732,-540.16479)" />
    <linearGradient
       id="linearGradient3587-6-5-1">
      <stop
         id="stop3589-9-2-0"
         style="stop-color:#000000;stop-opacity:1"
         offset="0" />
      <stop
         id="stop3591-7-4-5"
         style="stop-color:#363636;stop-opacity:1"
         offset="1" />
    </linearGradient>
    <linearGradient
       y2="18.561304"
       x2="32.361256"
       y1="4.561305"
       x1="32.361256"
       gradientTransform="translate(-24.361257,-3.5792516)"
       gradientUnits="userSpaceOnUse"
       id="linearGradient15268-2"
       xlink:href="#linearGradient3587-6-5-1"
       inkscape:collect="always" />
    <linearGradient
       y2="18.561304"
       x2="32.361256"
       y1="4.561305"
       x1="32.361256"
       gradientTransform="matrix(0.52176089,0,0,0.52176089,-9.0623463,3.5574156)"
       gradientUnits="userSpaceOnUse"
       id="linearGradient15268-8"
       xlink:href="#linearGradient3587-6-5-0"
       inkscape:collect="always" />
    <linearGradient
       id="linearGradient3587-6-5-0">
      <stop
         id="stop3589-9-2-3"
         style="stop-color:#000000;stop-opacity:1"
         offset="0" />
      <stop
         id="stop3591-7-4-7"
         style="stop-color:#363636;stop-opacity:1"
         offset="1" />
    </linearGradient>
    <linearGradient
       x1="32.361256"
       y1="4.561305"
       x2="32.361256"
       y2="18.561304"
       id="linearGradient2401-1"
       xlink:href="#linearGradient3587-6-5-0"
       gradientUnits="userSpaceOnUse"
       gradientTransform="translate(-24.361257,-3.561305)" />
    <linearGradient
       gradientUnits="userSpaceOnUse"
       y2="1049.3608"
       x2="7.8573594"
       y1="1038.9584"
       x1="7.8573594"
       id="linearGradient15232-9"
       xlink:href="#linearGradient14388-2"
       inkscape:collect="always" />
    <linearGradient
       inkscape:collect="always"
       xlink:href="#linearGradient3187-4-3"
       id="linearGradient14396-8"
       gradientUnits="userSpaceOnUse"
       x1="7.8707113"
       y1="1039.3387"
       x2="7.8707113"
       y2="1049.3208"
       gradientTransform="translate(16,0.98196006)" />
    <linearGradient
       id="linearGradient14388-2">
      <stop
         id="stop14390-0"
         style="stop-color:#a60000;stop-opacity:1"
         offset="0" />
      <stop
         id="stop14392-6"
         style="stop-color:#ff1313;stop-opacity:1"
         offset="1" />
    </linearGradient>
    <linearGradient
       gradientUnits="userSpaceOnUse"
       y2="1049.3208"
       x2="7.8707113"
       y1="1039.3387"
       x1="7.8707113"
       id="linearGradient14386-9"
       xlink:href="#linearGradient3187-4-3"
       inkscape:collect="always" />
    <linearGradient
       id="linearGradient3187-4-3">
      <stop
         id="stop3189-3-1"
         style="stop-color:#a60000;stop-opacity:1"
         offset="0" />
      <stop
         id="stop3191-3-4"
         style="stop-color:#ff1313;stop-opacity:1"
         offset="1" />
    </linearGradient>
    <linearGradient
       gradientUnits="userSpaceOnUse"
       y2="1049.3208"
       x2="7.8707113"
       y1="1039.3387"
       x1="7.8707113"
       id="linearGradient15359-6-4"
       xlink:href="#linearGradient3187-4-3"
       inkscape:collect="always" />
    <linearGradient
       gradientUnits="userSpaceOnUse"
       y2="1044.3623"
       x2="12.109"
       y1="1044.3623"
       x1="3.891"
       id="linearGradient15389-8"
       xlink:href="#linearGradient15383-5"
       inkscape:collect="always" />
    <linearGradient
       id="linearGradient3187-8">
      <stop
         id="stop3189-6"
         style="stop-color:#a60000;stop-opacity:1"
         offset="0" />
      <stop
         id="stop3191-8"
         style="stop-color:#ff1313;stop-opacity:1"
         offset="1" />
    </linearGradient>
    <linearGradient
       x1="9"
       y1="3"
       x2="9"
       y2="21"
       id="linearGradient3190-7"
       xlink:href="#linearGradient3187-8"
       gradientUnits="userSpaceOnUse"
       gradientTransform="translate(-1.9999384,-1)" />
    <linearGradient
       gradientUnits="userSpaceOnUse"
       y2="1049.3208"
       x2="7.8707113"
       y1="1039.3387"
       x1="7.8707113"
       id="linearGradient15359-0"
       xlink:href="#linearGradient3187-8"
       inkscape:collect="always" />
    <linearGradient
       y2="18.561304"
       x2="32.361256"
       y1="4.561305"
       x1="32.361256"
       gradientTransform="translate(-24.361257,-2.5792516)"
       gradientUnits="userSpaceOnUse"
       id="linearGradient15268-3"
       xlink:href="#linearGradient3587-6-5-7"
       inkscape:collect="always" />
    <linearGradient
       id="linearGradient3587-6-5-7">
      <stop
         id="stop3589-9-2-4"
         style="stop-color:#000000;stop-opacity:1"
         offset="0" />
      <stop
         id="stop3591-7-4-4"
         style="stop-color:#363636;stop-opacity:1"
         offset="1" />
    </linearGradient>
    <linearGradient
       x1="32.361256"
       y1="4.561305"
       x2="32.361256"
       y2="18.561304"
       id="linearGradient2401-4"
       xlink:href="#linearGradient3587-6-5-7"
       gradientUnits="userSpaceOnUse"
       gradientTransform="translate(-24.361257,-3.561305)" />
    <linearGradient
       id="linearGradient15383-5"
       inkscape:collect="always">
      <stop
         id="stop15385-2"
         offset="0"
         style="stop-color:#000000;stop-opacity:1;" />
      <stop
         id="stop15387-5"
         offset="1"
         style="stop-color:#000000;stop-opacity:0;" />
    </linearGradient>
    <linearGradient
       inkscape:collect="always"
       xlink:href="#linearGradient14388-2"
       id="linearGradient14457"
       gradientUnits="userSpaceOnUse"
       x1="7.8573594"
       y1="1038.9584"
       x2="7.8573594"
       y2="1049.3608" />
  </defs>
  <sodipodi:namedview
     id="base"
     pagecolor="#712024"
     bordercolor="#666666"
     borderopacity="1.0"
     inkscape:pageopacity="0"
     inkscape:pageshadow="2"
     inkscape:zoom="16.386533"
     inkscape:cx="-5.1986078"
     inkscape:cy="8.7117458"
     inkscape:document-units="px"
     inkscape:current-layer="layer1"
     showgrid="false"
     inkscape:window-width="1143"
     inkscape:window-height="734"
     inkscape:window-x="13"
     inkscape:window-y="30"
     inkscape:window-maximized="0" />
  <metadata
     id="metadata7">
    <rdf:RDF>
      <cc:Work
         rdf:about="">
        <dc:format>image/svg+xml</dc:format>
        <dc:type
           rdf:resource="http://purl.org/dc/dcmitype/StillImage" />
        <dc:title></dc:title>
      </cc:Work>
    </rdf:RDF>
  </metadata>
  <g
     inkscape:label="Layer 1"
     inkscape:groupmode="layer"
     id="layer1"
     transform="translate(0,-1028.3622)">
    <g
       id="layer1-7"
       transform="matrix(1.4946442,0,0,1.4946442,-39.909467,1028.5188)" />
    <g
       transform="matrix(1.4946442,0,0,1.4946442,0.04386387,-521.29417)"
       id="layer1-6"
       inkscape:label="Layer 1">
      <g
         transform="translate(0,1035.3622)"
         id="layer1-7-49">
        <path
           inkscape:connector-curvature="0"
           id="path3208"
           d="m 2,2.96875 c -1.108,0 -2,0.892 -2,2 l 0,10 c 0,1.108 0.892,2 2,2 l 12,0 c 1.108,0 2,-0.892 2,-2 l 0,-10 c 0,-1.108 -0.892,-2 -2,-2 l -12,0 z M 8.75,4.9375 c 0.457327,9.9e-6 0.854744,0.028427 1.21875,0.09375 0.373326,0.05601 0.707409,0.1347597 0.96875,0.21875 0.270659,0.074676 0.488242,0.1347595 0.65625,0.21875 0.177325,0.084009 0.300325,0.1408426 0.375,0.1875 l -0.625,1.75 C 11.045075,7.2475909 10.704492,7.1120077 10.3125,7 9.929827,6.8786746 9.488577,6.843758 9.03125,6.84375 8.013912,6.843758 7.301079,7.1181744 6.84375,7.6875 6.395747,8.2475066 6.156247,9.0200058 6.15625,10 c -3e-6,0.476004 0.04425,0.920504 0.15625,1.3125 0.111997,0.38267 0.307247,0.688753 0.53125,0.96875 0.223996,0.280002 0.476496,0.497585 0.8125,0.65625 0.335995,0.149335 0.739495,0.250002 1.1875,0.25 0.242661,2e-6 0.456994,-0.02191 0.625,-0.03125 0.177327,-0.0093 0.338077,-0.0345 0.46875,-0.0625 l 0,-3.375 2.15625,0 0,4.8125 c -0.261342,0.102667 -0.671342,0.2005 -1.25,0.3125 -0.578674,0.121333 -1.275673,0.1875 -2.125,0.1875 -0.728005,0 -1.402671,-0.11975 -2,-0.34375 -0.588003,-0.224 -1.080002,-0.539416 -1.5,-0.96875 -0.420002,-0.429332 -0.766668,-0.968415 -1,-1.59375 C 3.994749,11.49967 3.906249,10.802671 3.90625,10 3.906249,9.1880057 4.029249,8.4690897 4.28125,7.84375 4.533249,7.2184243 4.873832,6.6793415 5.3125,6.25 5.751164,5.8113424 6.255747,5.4740094 6.84375,5.25 7.441079,5.0260098 8.077995,4.9375099 8.75,4.9375 z"
           style="opacity:0.6;fill:#ffffff;fill-opacity:1;fill-rule:nonzero;stroke:none;stroke-width:1;marker:none;visibility:visible;display:inline;overflow:visible;enable-background:accumulate" />
      </g>
      <text
         sodipodi:linespacing="174%"
         id="text15270-5"
         y="1049.2343"
         x="3.191"
         style="font-size:14px;font-style:normal;font-variant:normal;font-weight:bold;font-stretch:normal;line-height:174.00000095%;letter-spacing:10px;word-spacing:0px;fill:url(#linearGradient14457);fill-opacity:1;stroke:#f50000;stroke-width:0.5;stroke-miterlimit:4;stroke-opacity:0.10196078;stroke-dasharray:none;font-family:Ubuntu;-inkscape-font-specification:Ubuntu Bold"
         xml:space="preserve"><tspan
           style="fill:url(#linearGradient14457);fill-opacity:1;stroke:#f50000;stroke-width:0.5;stroke-miterlimit:4;stroke-opacity:0.10196078;stroke-dasharray:none"
           y="1049.2343"
           x="3.191"
           id="tspan15272-0"
           sodipodi:role="line">G</tspan></text>
    </g>
    <g
       id="layer1-0"
       inkscape:label="Layer 1"
       transform="matrix(1.9168563,0,0,1.9168563,-10.493658,-954.88335)">
      <g
         transform="matrix(1.494802,0,0,1.494802,0.04158389,1026.1849)"
         id="layer1-7-4">
        <path
           inkscape:connector-curvature="0"
           id="rect2386-6"
           d="m 4.6919268,5.930385 c -0.578111,0 -1.0435218,0.4654107 -1.0435218,1.0435218 l 0,5.2176092 c 0,0.578111 0.4654108,1.043521 1.0435218,1.043521 l 6.2611302,0 c 0.578111,0 1.043522,-0.46541 1.043522,-1.043521 l 0,-5.2176092 c 0,-0.5781111 -0.465411,-1.0435218 -1.043522,-1.0435218 l -6.2611302,0 z m 3.521886,1.0272167 c 0.2386155,5.2e-6 0.4459718,0.014832 0.6358961,0.048915 0.1947872,0.029224 0.3690982,0.070312 0.5054562,0.1141352 0.141219,0.038963 0.254745,0.086617 0.342405,0.1304402 0.09252,0.043833 0.156698,0.073486 0.195661,0.09783 L 9.5671301,8.262004 C 9.4112931,8.1792219 9.2335901,8.1084798 9.0290641,8.0500386 8.8294002,7.9867358 8.5991734,7.9522126 8.3605581,7.9522084 7.8297508,7.9522126 7.4578226,8.1116974 7.2192061,8.4087492 6.9854556,8.7009388 6.860494,9.0876936 6.8604955,9.5990163 c -1.5e-6,0.2483606 0.023086,0.4802827 0.081525,0.6848107 0.058436,0.199663 0.1603092,0.37567 0.2771854,0.521761 0.1168724,0.146094 0.248617,0.259621 0.4239308,0.342406 0.1753091,0.07792 0.3858394,0.114136 0.619591,0.114135 0.1266109,1e-6 0.2384416,0.0049 0.3261006,0 0.092522,-0.0049 0.1763952,-0.018 0.2445754,-0.03261 l 0,-1.760943 1.1250464,0 0,2.510974 c -0.136358,0.05357 -0.35028,0.104613 -0.652201,0.16305 -0.301929,0.06331 -0.6655959,0.09783 -1.1087415,0.09783 -0.3798444,0 -0.7318588,-0.06248 -1.0435218,-0.179356 C 6.8471891,11.944201 6.590483,11.779629 6.3713447,11.555619 6.1522043,11.331611 5.9713274,11.050338 5.8495838,10.724063 5.7327089,10.39779 5.6865331,10.017818 5.6865335,9.5990163 5.6865331,9.1753494 5.7507097,8.8002471 5.8821938,8.4739693 6.0136769,8.1476988 6.1913798,7.8827315 6.4202598,7.6587179 6.6491375,7.4298436 6.9124091,7.2538364 7.2192061,7.136957 7.5308691,7.0200877 7.863187,6.9576069 8.2138128,6.9576017 z"
           style="opacity:0.7;fill:url(#linearGradient15268-8);fill-opacity:1;fill-rule:nonzero;stroke:none;stroke-width:1;marker:none;visibility:visible;display:inline;overflow:visible;enable-background:accumulate" />
      </g>
    </g>
  </g>
</svg>
