<?xml version="1.0" encoding="UTF-8" standalone="no"?>
<!-- Created with Inkscape (http://www.inkscape.org/) -->

<svg
   xmlns:dc="http://purl.org/dc/elements/1.1/"
   xmlns:cc="http://creativecommons.org/ns#"
   xmlns:rdf="http://www.w3.org/1999/02/22-rdf-syntax-ns#"
   xmlns:svg="http://www.w3.org/2000/svg"
   xmlns="http://www.w3.org/2000/svg"
   xmlns:xlink="http://www.w3.org/1999/xlink"
   xmlns:sodipodi="http://sodipodi.sourceforge.net/DTD/sodipodi-0.dtd"
   xmlns:inkscape="http://www.inkscape.org/namespaces/inkscape"
   width="16"
   height="16"
   id="svg2"
   version="1.1"
   inkscape:version="0.48.0 r9654"
   sodipodi:docname="logitech-g-keyboard-panel.svg">
  <defs
     id="defs4">
    <linearGradient
       gradientTransform="translate(-24.361257,-3.561305)"
       gradientUnits="userSpaceOnUse"
       xlink:href="#linearGradient3587-6-5"
       id="linearGradient2401"
       y2="18.561304"
       x2="32.361256"
       y1="4.561305"
       x1="32.361256" />
    <linearGradient
       id="linearGradient3587-6-5">
      <stop
         offset="0"
         style="stop-color:#000000;stop-opacity:1"
         id="stop3589-9-2" />
      <stop
         offset="1"
         style="stop-color:#363636;stop-opacity:1"
         id="stop3591-7-4" />
    </linearGradient>
    <linearGradient
       inkscape:collect="always"
       xlink:href="#linearGradient3587-6-5-1"
       id="linearGradient15268-2"
       gradientUnits="userSpaceOnUse"
       gradientTransform="translate(-24.361257,-3.5792516)"
       x1="32.361256"
       y1="4.561305"
       x2="32.361256"
       y2="18.561304" />
    <linearGradient
       id="linearGradient3587-6-5-1">
      <stop
         offset="0"
         style="stop-color:#000000;stop-opacity:1"
         id="stop3589-9-2-0" />
      <stop
         offset="1"
         style="stop-color:#363636;stop-opacity:1"
         id="stop3591-7-4-5" />
    </linearGradient>
    <inkscape:perspective
       id="perspective9"
       inkscape:persp3d-origin="12 : 8 : 1"
       inkscape:vp_z="24 : 12 : 1"
       inkscape:vp_y="0 : 1000 : 0"
       inkscape:vp_x="0 : 12 : 1"
       sodipodi:type="inkscape:persp3d" />
  </defs>
  <sodipodi:namedview
     id="base"
     pagecolor="#ffffff"
     bordercolor="#666666"
     borderopacity="1.0"
     inkscape:pageopacity="0"
     inkscape:pageshadow="2"
     inkscape:zoom="15.327746"
     inkscape:cx="8.8287431"
     inkscape:cy="10.920422"
     inkscape:document-units="px"
     inkscape:current-layer="layer1"
     showgrid="false"
     inkscape:window-width="1143"
     inkscape:window-height="734"
     inkscape:window-x="443"
     inkscape:window-y="172"
     inkscape:window-maximized="0" />
  <metadata
     id="metadata7">
    <rdf:RDF>
      <cc:Work
         rdf:about="">
        <dc:format>image/svg+xml</dc:format>
        <dc:type
           rdf:resource="http://purl.org/dc/dcmitype/StillImage" />
        <dc:title></dc:title>
      </cc:Work>
    </rdf:RDF>
  </metadata>
  <g
     inkscape:label="Layer 1"
     inkscape:groupmode="layer"
     id="layer1"
     transform="translate(0,-1036.3622)">
    <rect
       style="opacity:0.6;fill:#43423e;fill-opacity:1;stroke:none"
       id="rect2992"
       width="14"
       height="12"
       x="1"
       y="1038.3622"
       rx="3"
       ry="3" />
    <rect
       style="fill:#dfd8c8;fill-opacity:1;stroke:none"
       id="rect2992-0"
       width="12"
       height="10"
       x="2"
       y="1039.3622"
       rx="3"
       ry="3" />
    <path
       style="font-size:13.00297355999999915px;font-style:normal;font-variant:normal;font-weight:normal;font-stretch:normal;text-indent:0;text-align:center;text-decoration:none;line-height:125%;letter-spacing:0px;word-spacing:0px;text-transform:none;direction:ltr;block-progression:tb;writing-mode:lr-tb;text-anchor:middle;baseline-shift:baseline;color:#000000;fill:#ff0000;fill-opacity:1;fill-rule:nonzero;stroke:none;stroke-width:1px;marker:none;visibility:visible;display:inline;overflow:visible;enable-background:accumulate;font-family:Sans;-inkscape-font-specification:Fixed"
       d="m 8.1281687,1040.893 c -1.1313254,0 -2.008923,0.2843 -2.6489263,0.8808 -0.636774,0.5937 -0.9545688,1.4271 -0.9545683,2.4922 -5e-7,1.0622 0.3177943,1.8956 0.9545683,2.4922 0.6400033,0.5936 1.5176009,0.8808 2.6489263,0.8808 0.517172,0 1.023815,-0.05 1.479581,-0.1718 0.4557553,-0.1252 0.8627483,-0.3171 1.2409393,-0.5587 l 0,-2.7929 -0.9784323,0 0,0.7305 0,1.1386 0,0.6016 c -0.216574,0.1135 -0.444415,0.2025 -0.715927,0.2578 -0.271522,0.053 -0.584847,0.086 -0.930704,0.086 -0.8856673,0 -1.5585315,-0.2422 -2.0045929,-0.6874 -0.4428338,-0.4453 -0.6681994,-1.0978 -0.6681978,-1.9766 -1.6e-6,-0.8817 0.225364,-1.5528 0.6681978,-1.998 0.4460614,-0.4453 1.1189256,-0.666 2.0045929,-0.666 0.449293,0 0.881386,0.075 1.288667,0.2148 0.40727,0.1397 0.7834533,0.3466 1.1454823,0.6231 l 0,-0.9454 c -0.358797,-0.2036 -0.7426813,-0.3464 -1.1693463,-0.4511 -0.423442,-0.1048 -0.888341,-0.1504 -1.36026,-0.1504 z"
       id="text3786"
       inkscape:connector-curvature="0" />
  </g>
</svg>
