<?xml version="1.0" encoding="UTF-8" standalone="no"?>
<!-- Created with Inkscape (http://www.inkscape.org/) -->

<svg
   xmlns:dc="http://purl.org/dc/elements/1.1/"
   xmlns:cc="http://creativecommons.org/ns#"
   xmlns:rdf="http://www.w3.org/1999/02/22-rdf-syntax-ns#"
   xmlns:svg="http://www.w3.org/2000/svg"
   xmlns="http://www.w3.org/2000/svg"
   xmlns:sodipodi="http://sodipodi.sourceforge.net/DTD/sodipodi-0.dtd"
   xmlns:inkscape="http://www.inkscape.org/namespaces/inkscape"
   id="svg7384"
   height="16"
   width="16"
   version="1.1"
   inkscape:version="0.48.3.1 r9886"
   sodipodi:docname="logitech-z10-symbolic.svg">
  <defs
     id="defs10" />
  <sodipodi:namedview
     pagecolor="#ffffff"
     bordercolor="#666666"
     borderopacity="1"
     objecttolerance="10"
     gridtolerance="10"
     guidetolerance="10"
     inkscape:pageopacity="0"
     inkscape:pageshadow="2"
     inkscape:window-width="1920"
     inkscape:window-height="1058"
     id="namedview8"
     showgrid="false"
     inkscape:zoom="14.75"
     inkscape:cx="-22.937889"
     inkscape:cy="8.2254677"
     inkscape:window-x="1920"
     inkscape:window-y="0"
     inkscape:window-maximized="1"
     inkscape:current-layer="svg7384" />
  <metadata
     id="metadata90">
    <rdf:RDF>
      <cc:Work
         rdf:about="">
        <dc:format>image/svg+xml</dc:format>
        <dc:type
           rdf:resource="http://purl.org/dc/dcmitype/StillImage" />
        <dc:title>Gnome Symbolic Icon Theme</dc:title>
      </cc:Work>
    </rdf:RDF>
  </metadata>
  <title
     id="title9167">Gnome Symbolic Icon Theme</title>
  <path
     style="fill:#bebebe;fill-opacity:1;stroke:none"
     d="M 2 1 C 0.892 1 0 1.892 0 3 L 0 13 C 0 14.108 0.892 15 2 15 L 14 15 C 15.108 15 16 14.108 16 13 L 16 3 C 16 1.892 15.108 1 14 1 L 2 1 z M 4.15625 3.15625 L 5.4375 3.15625 L 6.21875 6.09375 L 7 3.15625 L 8.28125 3.15625 L 8.28125 7.46875 L 7.5 7.46875 L 7.5 4.0625 L 6.625 7.46875 L 5.8125 7.46875 L 4.9375 4.0625 L 4.9375 7.46875 L 4.15625 7.46875 L 4.15625 3.15625 z M 8.875 3.15625 L 9.875 3.15625 L 10.75 4.53125 L 11.59375 3.15625 L 12.59375 3.15625 L 11.25 5.25 L 12.71875 7.46875 L 11.65625 7.46875 L 10.71875 5.96875 L 9.75 7.46875 L 8.71875 7.46875 L 10.1875 5.21875 L 8.875 3.15625 z M 9.875 8.78125 C 10.291014 8.7812543 10.609373 8.9218792 10.84375 9.21875 C 11.123044 9.570316 11.249997 10.1543 11.25 10.96875 C 11.249997 11.781251 11.124997 12.363282 10.84375 12.71875 C 10.611326 13.011719 10.291014 13.15625 9.875 13.15625 C 9.45703 13.15625 9.1308585 13.007813 8.875 12.6875 C 8.6191402 12.365235 8.4687497 11.79297 8.46875 10.96875 C 8.4687497 10.160159 8.6249996 9.5742223 8.90625 9.21875 C 9.138671 8.9257854 9.4589831 8.7812543 9.875 8.78125 z M 13.21875 8.78125 C 13.634764 8.7812543 13.953123 8.9218792 14.1875 9.21875 C 14.466794 9.570316 14.593747 10.1543 14.59375 10.96875 C 14.593747 11.781251 14.468747 12.363282 14.1875 12.71875 C 13.955076 13.011719 13.634764 13.15625 13.21875 13.15625 C 12.80078 13.15625 12.443358 13.007813 12.1875 12.6875 C 11.93164 12.365235 11.8125 11.79297 11.8125 10.96875 C 11.8125 10.160159 11.96875 9.5742223 12.25 9.21875 C 12.482421 8.9257854 12.802733 8.7812543 13.21875 8.78125 z M 2.34375 8.875 L 4.5 8.875 L 4.5 9.625 L 2.96875 9.625 L 2.8125 10.375 C 2.9960923 10.283206 3.1835921 10.218753 3.375 10.21875 C 3.7402322 10.218753 4.0585912 10.359378 4.3125 10.625 C 4.5664032 10.890627 4.6874968 11.232424 4.6875 11.65625 C 4.6874968 12.009767 4.6113251 12.316407 4.40625 12.59375 C 4.1269506 12.972656 3.7148416 13.15625 3.21875 13.15625 C 2.8222643 13.15625 2.499999 13.056641 2.25 12.84375 C 1.9999995 12.63086 1.8613278 12.359376 1.8125 12 L 2.625 11.90625 C 2.6484364 12.091798 2.7285144 12.234376 2.84375 12.34375 C 2.958983 12.451173 3.0996078 12.500001 3.25 12.5 C 3.4218731 12.500001 3.5683574 12.451173 3.6875 12.3125 C 3.8066384 12.171876 3.8437477 11.937501 3.84375 11.65625 C 3.8437477 11.39258 3.8066384 11.224611 3.6875 11.09375 C 3.5703105 10.96094 3.4082013 10.875002 3.21875 10.875 C 2.9824204 10.875002 2.7812488 10.978518 2.59375 11.1875 L 1.90625 11.09375 L 2.34375 8.875 z M 5.6875 8.875 L 7.84375 8.875 L 7.84375 9.625 L 6.28125 9.625 L 6.15625 10.375 C 6.3398423 10.283206 6.5273421 10.218753 6.71875 10.21875 C 7.0839822 10.218753 7.4023412 10.359378 7.65625 10.625 C 7.9101532 10.890627 8.0312468 11.232424 8.03125 11.65625 C 8.0312468 12.009767 7.9238251 12.316407 7.71875 12.59375 C 7.4394506 12.972656 7.0585916 13.15625 6.5625 13.15625 C 6.1660143 13.15625 5.843749 13.056641 5.59375 12.84375 C 5.3437495 12.63086 5.2050778 12.359376 5.15625 12 L 5.96875 11.90625 C 5.9921864 12.091798 6.0722644 12.234376 6.1875 12.34375 C 6.302733 12.451173 6.4121078 12.500001 6.5625 12.5 C 6.7343731 12.500001 6.8808574 12.451173 7 12.3125 C 7.1191384 12.171876 7.1874977 11.937501 7.1875 11.65625 C 7.1874977 11.39258 7.1191384 11.224611 7 11.09375 C 6.8828105 10.96094 6.7519513 10.875002 6.5625 10.875 C 6.3261704 10.875002 6.0937488 10.978518 5.90625 11.1875 L 5.25 11.09375 L 5.6875 8.875 z M 9.875 9.46875 C 9.7753891 9.4687536 9.6718735 9.4980505 9.59375 9.5625 C 9.5156237 9.6250035 9.4804675 9.7421909 9.4375 9.90625 C 9.3808582 10.119144 9.3437489 10.464846 9.34375 10.96875 C 9.3437489 11.472658 9.3554676 11.841798 9.40625 12.03125 C 9.45703 12.218751 9.5175768 12.343751 9.59375 12.40625 C 9.6718735 12.468751 9.7753891 12.500001 9.875 12.5 C 9.9746076 12.500001 10.046873 12.468751 10.125 12.40625 C 10.203123 12.341798 10.269529 12.226563 10.3125 12.0625 C 10.369138 11.851564 10.406248 11.472658 10.40625 10.96875 C 10.406248 10.464846 10.363279 10.125003 10.3125 9.9375 C 10.261717 9.7480502 10.203123 9.6250035 10.125 9.5625 C 10.048826 9.4980505 9.9746076 9.4687536 9.875 9.46875 z M 13.21875 9.46875 C 13.119139 9.4687536 13.015624 9.4980505 12.9375 9.5625 C 12.859374 9.6250035 12.792968 9.7421909 12.75 9.90625 C 12.693358 10.119144 12.687499 10.464846 12.6875 10.96875 C 12.687499 11.472658 12.699218 11.841798 12.75 12.03125 C 12.80078 12.218751 12.861327 12.343751 12.9375 12.40625 C 13.015624 12.468751 13.119139 12.500001 13.21875 12.5 C 13.318358 12.500001 13.390623 12.468751 13.46875 12.40625 C 13.546873 12.341798 13.613279 12.226563 13.65625 12.0625 C 13.712888 11.851564 13.749998 11.472658 13.75 10.96875 C 13.749998 10.464846 13.707029 10.125003 13.65625 9.9375 C 13.605467 9.7480502 13.546873 9.6250035 13.46875 9.5625 C 13.392576 9.4980505 13.318358 9.4687536 13.21875 9.46875 z "
     id="rect2984" />
  <path
     style="fill:#aad400;fill-opacity:1;stroke:none"
     d="m -58.203389,-9.5084746 c -1.108,0 -2,0.892 -2,2 l 0,9.9999998 c 0,1.1080005 0.892,2.0000005 2,2.0000005 l 12,0 c 1.108,0 2,-0.892 2,-2.0000005 l 0,-9.9999998 c 0,-1.108 -0.892,-2 -2,-2 l -12,0 z m 2.5625,5.125 c 0.5332,4.4e-6 0.951168,0.1191449 1.25,0.34375 0.300777,0.2226601 0.507808,0.5429723 0.59375,0.9375 l -0.875,0.15625 c -0.06055,-0.2109343 -0.175785,-0.3789029 -0.34375,-0.5 -0.166019,-0.1230433 -0.375003,-0.1874964 -0.625,-0.1875 -0.378908,3.6e-6 -0.681642,0.1347691 -0.90625,0.375 -0.222658,0.2402374 -0.312501,0.5898464 -0.3125,1.0625 -10e-7,0.5097673 0.117186,0.9003919 0.34375,1.15625 0.226561,0.25390701 0.50781,0.37500071 0.875,0.37500001 0.181638,7e-7 0.380857,-0.023437 0.5625,-0.09375 0.183591,-0.072265 0.337887,-0.1796866 0.46875,-0.28125001 l 0,-0.53125 -1,0 0,-0.71875 1.875,0 0,1.68750001 c -0.181645,0.175782 -0.466801,0.333985 -0.8125,0.46875001 -0.343753,0.13281199695 -0.677737,0.21875 -1.03125,0.21875 -0.449221,0 -0.853517,-0.09375 -1.1875,-0.28125 -0.333985,-0.18945301 -0.582032,-0.46289001 -0.75,-0.81250002 -0.167969,-0.3515611 -0.25,-0.7441389 -0.25,-1.15625 0,-0.447263 0.09375,-0.8398407 0.28125,-1.1875 0.187499,-0.3476525 0.482421,-0.6269492 0.84375,-0.8125 0.275389,-0.1425738 0.589842,-0.2187456 1,-0.21875 z m 3.9375,0.0625 0.6875,0 0,4.31250002 -0.84375,0 0,-3.09375002 c -0.300783,0.2812528 -0.654298,0.490237 -1.0625,0.625 l 0,-0.75 c 0.214843,-0.070309 0.466796,-0.2109341 0.71875,-0.40625 0.251952,-0.1972618 0.406248,-0.4257772 0.5,-0.6875 z m 3.21875,0 c 0.435545,4.3e-6 0.814451,0.1621135 1.09375,0.5 0.279294,0.335941 0.406247,0.9160185 0.40625,1.6875 -3e-6,0.7851576 -0.146487,1.33984451 -0.4375,1.68750001 -0.291018,0.34765601 -0.658205,0.53125001 -1.125,0.53125001 -0.335939,0 -0.60547,-0.103516 -0.8125,-0.28125 -0.207032,-0.17968701 -0.347657,-0.45703061 -0.40625,-0.81250002 l 0.78125,-0.0625 c 0.01953,0.16211031 0.07422,0.26562581 0.15625,0.34375001 0.08203,0.078126 0.208983,0.1250006 0.34375,0.125 0.16992,6e-7 0.318358,-0.093749 0.4375,-0.25 0.119139,-0.15624901 0.185545,-0.47656121 0.21875,-0.96875001 -0.207033,0.2402359 -0.470705,0.3750015 -0.78125,0.375 -0.337892,1.5e-6 -0.628907,-0.1464828 -0.875,-0.40625 -0.244141,-0.2617166 -0.375,-0.5820288 -0.375,-1 0,-0.4355436 0.148437,-0.7968714 0.40625,-1.0625 0.259765,-0.2675739 0.568358,-0.4062457 0.96875,-0.40625 z m -0.03125,0.6875 c -0.152345,3.6e-6 -0.273439,0.06641 -0.375,0.1875 -0.09961,0.119144 -0.156251,0.3203156 -0.15625,0.59375 -10e-7,0.2773463 0.04687,0.462893 0.15625,0.59375 0.109374,0.1289084 0.242186,0.2187521 0.40625,0.21875 0.158201,2.1e-6 0.298826,-0.062498 0.40625,-0.1875 0.109373,-0.1249976 0.156248,-0.32031 0.15625,-0.5625 -2e-6,-0.2656219 -0.0332,-0.4785124 -0.15625,-0.625 -0.121096,-0.1464808 -0.277345,-0.2187464 -0.4375,-0.21875 z"
     id="rect2983"
     inkscape:connector-curvature="0" />
</svg>
