<?xml version="1.0" encoding="UTF-8" standalone="no"?>
<!-- Created with Inkscape (http://www.inkscape.org/) -->

<svg
   xmlns:dc="http://purl.org/dc/elements/1.1/"
   xmlns:cc="http://creativecommons.org/ns#"
   xmlns:rdf="http://www.w3.org/1999/02/22-rdf-syntax-ns#"
   xmlns:svg="http://www.w3.org/2000/svg"
   xmlns="http://www.w3.org/2000/svg"
   xmlns:sodipodi="http://sodipodi.sourceforge.net/DTD/sodipodi-0.dtd"
   xmlns:inkscape="http://www.inkscape.org/namespaces/inkscape"
   id="svg7384"
   height="16"
   width="16"
   version="1.1"
   inkscape:version="0.48.3.1 r9886"
   sodipodi:docname="logitech-g19-symbolic.svg">
  <defs
     id="defs10" />
  <sodipodi:namedview
     pagecolor="#ffffff"
     bordercolor="#666666"
     borderopacity="1"
     objecttolerance="10"
     gridtolerance="10"
     guidetolerance="10"
     inkscape:pageopacity="0"
     inkscape:pageshadow="2"
     inkscape:window-width="1920"
     inkscape:window-height="1004"
     id="namedview8"
     showgrid="false"
     inkscape:zoom="14.75"
     inkscape:cx="-11.412465"
     inkscape:cy="8.2254677"
     inkscape:window-x="0"
     inkscape:window-y="27"
     inkscape:window-maximized="1"
     inkscape:current-layer="svg7384" />
  <metadata
     id="metadata90">
    <rdf:RDF>
      <cc:Work
         rdf:about="">
        <dc:format>image/svg+xml</dc:format>
        <dc:type
           rdf:resource="http://purl.org/dc/dcmitype/StillImage" />
        <dc:title>Gnome Symbolic Icon Theme</dc:title>
      </cc:Work>
    </rdf:RDF>
  </metadata>
  <title
     id="title9167">Gnome Symbolic Icon Theme</title>
  <path
     style="fill:#bebebe;fill-opacity:1;stroke:none"
     d="M 2 1 C 0.892 1 0 1.892 0 3 L 0 13 C 0 14.108 0.892 15 2 15 L 14 15 C 15.108 15 16 14.108 16 13 L 16 3 C 16 1.892 15.108 1 14 1 L 2 1 z M 4.5625 6.125 C 5.0957002 6.1250044 5.5136685 6.2441449 5.8125 6.46875 C 6.1132773 6.6914101 6.3203083 7.0117223 6.40625 7.40625 L 5.53125 7.5625 C 5.4706998 7.3515657 5.3554655 7.1835971 5.1875 7.0625 C 5.0214815 6.9394567 4.8124973 6.8750036 4.5625 6.875 C 4.1835917 6.8750036 3.8808576 7.0097691 3.65625 7.25 C 3.4335925 7.4902374 3.3437488 7.8398464 3.34375 8.3125 C 3.3437488 8.8222673 3.4609362 9.2128919 3.6875 9.46875 C 3.9140608 9.722657 4.1953105 9.8437507 4.5625 9.84375 C 4.744138 9.8437507 4.9433566 9.8203132 5.125 9.75 C 5.3085906 9.6777352 5.4628873 9.5703134 5.59375 9.46875 L 5.59375 8.9375 L 4.59375 8.9375 L 4.59375 8.21875 L 6.46875 8.21875 L 6.46875 9.90625 C 6.2871053 10.082032 6.0019493 10.240235 5.65625 10.375 C 5.3124968 10.507812 4.9785128 10.59375 4.625 10.59375 C 4.1757792 10.59375 3.7714827 10.5 3.4375 10.3125 C 3.1035147 10.123047 2.855468 9.84961 2.6875 9.5 C 2.5195309 9.1484389 2.4374997 8.7558611 2.4375 8.34375 C 2.4374997 7.896487 2.5312496 7.5039093 2.71875 7.15625 C 2.9062492 6.8085975 3.2011708 6.5293008 3.5625 6.34375 C 3.837889 6.2011762 4.1523417 6.1250044 4.5625 6.125 z M 8.5 6.1875 L 9.1875 6.1875 L 9.1875 10.5 L 8.34375 10.5 L 8.34375 7.40625 C 8.0429675 7.6875028 7.6894522 7.896487 7.28125 8.03125 L 7.28125 7.28125 C 7.4960931 7.2109408 7.748046 7.0703159 8 6.875 C 8.2519517 6.6777382 8.4062484 6.4492228 8.5 6.1875 z M 11.71875 6.1875 C 12.154295 6.1875043 12.533201 6.3496135 12.8125 6.6875 C 13.091794 7.023441 13.218747 7.6035185 13.21875 8.375 C 13.218747 9.1601576 13.072263 9.7148445 12.78125 10.0625 C 12.490232 10.410156 12.123045 10.59375 11.65625 10.59375 C 11.320311 10.59375 11.05078 10.490234 10.84375 10.3125 C 10.636718 10.132813 10.496093 9.8554694 10.4375 9.5 L 11.21875 9.4375 C 11.23828 9.5996103 11.292968 9.7031258 11.375 9.78125 C 11.45703 9.8593756 11.583983 9.9062506 11.71875 9.90625 C 11.88867 9.9062506 12.037108 9.8125007 12.15625 9.65625 C 12.275389 9.500001 12.341795 9.1796888 12.375 8.6875 C 12.167967 8.9277359 11.904295 9.0625015 11.59375 9.0625 C 11.255858 9.0625015 10.964843 8.9160172 10.71875 8.65625 C 10.474609 8.3945334 10.34375 8.0742212 10.34375 7.65625 C 10.34375 7.2207064 10.492187 6.8593786 10.75 6.59375 C 11.009765 6.3261761 11.318358 6.1875043 11.71875 6.1875 z M 11.6875 6.875 C 11.535155 6.8750036 11.414061 6.9414098 11.3125 7.0625 C 11.21289 7.181644 11.156249 7.3828156 11.15625 7.65625 C 11.156249 7.9335963 11.203124 8.119143 11.3125 8.25 C 11.421874 8.3789084 11.554686 8.4687521 11.71875 8.46875 C 11.876951 8.4687521 12.017576 8.4062521 12.125 8.28125 C 12.234373 8.1562524 12.281248 7.96094 12.28125 7.71875 C 12.281248 7.4531281 12.248045 7.2402376 12.125 7.09375 C 12.003904 6.9472692 11.847655 6.8750036 11.6875 6.875 z "
     id="rect2983" />
</svg>
