<?xml version="1.0" encoding="UTF-8" standalone="no"?>
<!-- Created with Inkscape (http://www.inkscape.org/) -->

<svg
   xmlns:dc="http://purl.org/dc/elements/1.1/"
   xmlns:cc="http://creativecommons.org/ns#"
   xmlns:rdf="http://www.w3.org/1999/02/22-rdf-syntax-ns#"
   xmlns:svg="http://www.w3.org/2000/svg"
   xmlns="http://www.w3.org/2000/svg"
   xmlns:sodipodi="http://sodipodi.sourceforge.net/DTD/sodipodi-0.dtd"
   xmlns:inkscape="http://www.inkscape.org/namespaces/inkscape"
   id="svg7384"
   height="16"
   width="16"
   version="1.1"
   inkscape:version="0.48.3.1 r9886"
   sodipodi:docname="logitech-source.svg">
  <defs
     id="defs10" />
  <sodipodi:namedview
     pagecolor="#ffffff"
     bordercolor="#666666"
     borderopacity="1"
     objecttolerance="10"
     gridtolerance="10"
     guidetolerance="10"
     inkscape:pageopacity="0"
     inkscape:pageshadow="2"
     inkscape:window-width="1920"
     inkscape:window-height="1058"
     id="namedview8"
     showgrid="false"
     inkscape:zoom="14.75"
     inkscape:cx="-22.937889"
     inkscape:cy="8.2254677"
     inkscape:window-x="1920"
     inkscape:window-y="0"
     inkscape:window-maximized="1"
     inkscape:current-layer="svg7384" />
  <metadata
     id="metadata90">
    <rdf:RDF>
      <cc:Work
         rdf:about="">
        <dc:format>image/svg+xml</dc:format>
        <dc:type
           rdf:resource="http://purl.org/dc/dcmitype/StillImage" />
        <dc:title>Gnome Symbolic Icon Theme</dc:title>
      </cc:Work>
    </rdf:RDF>
  </metadata>
  <title
     id="title9167">Gnome Symbolic Icon Theme</title>
  <path
     style="fill:#bebebe;fill-opacity:1;stroke:none"
     d="M 2 1 C 0.892 1 0 1.892 0 3 L 0 13 C 0 14.108 0.892 15 2 15 L 14 15 C 15.108 15 16 14.108 16 13 L 16 3 C 16 1.892 15.108 1 14 1 L 2 1 z M 4.625 6.0625 C 5.1582002 6.0625044 5.5761685 6.1816449 5.875 6.40625 C 6.1757773 6.6289101 6.3828083 6.9492223 6.46875 7.34375 L 5.59375 7.5 C 5.5331998 7.2890657 5.4179655 7.1210971 5.25 7 C 5.0839815 6.8769567 4.8749973 6.8125036 4.625 6.8125 C 4.2460917 6.8125036 3.9433576 6.9472691 3.71875 7.1875 C 3.4960925 7.4277374 3.4062488 7.7773464 3.40625 8.25 C 3.4062488 8.7597673 3.4921862 9.1503919 3.71875 9.40625 C 3.9453108 9.660157 4.2578105 9.7812507 4.625 9.78125 C 4.806638 9.7812507 4.9746066 9.7265632 5.15625 9.65625 C 5.3398406 9.5839852 5.4941373 9.5078134 5.625 9.40625 L 5.625 8.875 L 4.65625 8.875 L 4.65625 8.125 L 6.53125 8.125 L 6.53125 9.84375 C 6.3496053 10.019532 6.0644493 10.177735 5.71875 10.3125 C 5.3749968 10.445312 5.0410128 10.5 4.6875 10.5 C 4.2382792 10.5 3.8339827 10.40625 3.5 10.21875 C 3.1660147 10.029297 2.917968 9.78711 2.75 9.4375 C 2.5820309 9.0859389 2.4999997 8.6933611 2.5 8.28125 C 2.4999997 7.833987 2.5937496 7.4414093 2.78125 7.09375 C 2.9687492 6.7460975 3.2324208 6.4668008 3.59375 6.28125 C 3.869139 6.1386762 4.2148417 6.0625044 4.625 6.0625 z M 8.5 6.125 C 8.9042949 6.1250043 9.224607 6.2421917 9.46875 6.5 C 9.6699191 6.7109412 9.7499971 6.9531285 9.75 7.21875 C 9.7499971 7.595706 9.5683567 7.9003932 9.15625 8.125 C 9.4023412 8.1777366 9.5722629 8.3164084 9.71875 8.5 C 9.8671845 8.6835955 9.9687469 8.8964859 9.96875 9.15625 C 9.9687469 9.533204 9.8066377 9.8593756 9.53125 10.125 C 9.255857 10.390625 8.9101542 10.5 8.5 10.5 C 8.1113269 10.5 7.8183584 10.410156 7.5625 10.1875 C 7.3066402 9.9628911 7.1347654 9.6738289 7.09375 9.3125 L 7.90625 9.21875 C 7.9316396 9.421876 7.9824208 9.548829 8.09375 9.65625 C 8.2050768 9.7636725 8.3417954 9.8437506 8.5 9.84375 C 8.6699201 9.8437506 8.8222637 9.7539069 8.9375 9.625 C 9.0546853 9.4960947 9.1249978 9.3437511 9.125 9.125 C 9.1249978 8.9179703 9.0488259 8.7460954 8.9375 8.625 C 8.8261699 8.5039082 8.6914044 8.437502 8.53125 8.4375 C 8.4257797 8.437502 8.3027329 8.4589864 8.15625 8.5 L 8.25 7.84375 C 8.4726547 7.849612 8.6328107 7.7890651 8.75 7.6875 C 8.8671855 7.5839872 8.9374979 7.4511749 8.9375 7.28125 C 8.9374979 7.1367221 8.8984355 7.0234409 8.8125 6.9375 C 8.7265607 6.8515661 8.6113264 6.8125036 8.46875 6.8125 C 8.3281236 6.8125036 8.193358 6.8398473 8.09375 6.9375 C 7.9941395 7.0351596 7.9589833 7.1875032 7.9375 7.375 L 7.15625 7.25 C 7.208984 6.9902378 7.3007808 6.7793005 7.40625 6.625 C 7.5136712 6.468754 7.6542961 6.3378947 7.84375 6.25 C 8.0351551 6.1601605 8.2636705 6.1250043 8.5 6.125 z M 11 6.21875 L 13.1875 6.21875 L 13.1875 6.96875 L 11.625 6.96875 L 11.5 7.71875 C 11.683592 7.626956 11.871092 7.5625029 12.0625 7.5625 C 12.427732 7.5625029 12.746091 7.7031277 13 7.96875 C 13.253903 8.2343772 13.374997 8.5761737 13.375 9 C 13.374997 9.3535167 13.267575 9.660157 13.0625 9.9375 C 12.783201 10.316406 12.402342 10.5 11.90625 10.5 C 11.509764 10.5 11.187499 10.400391 10.9375 10.1875 C 10.6875 9.9746098 10.517578 9.7031257 10.46875 9.34375 L 11.3125 9.25 C 11.335936 9.4355479 11.384764 9.5781259 11.5 9.6875 C 11.615233 9.7949225 11.755858 9.8437506 11.90625 9.84375 C 12.078123 9.8437506 12.224607 9.7949225 12.34375 9.65625 C 12.462888 9.5156259 12.531248 9.2812511 12.53125 9 C 12.531248 8.7363298 12.462888 8.5683613 12.34375 8.4375 C 12.22656 8.3046897 12.064451 8.2187522 11.875 8.21875 C 11.63867 8.2187522 11.437499 8.3222677 11.25 8.53125 L 10.59375 8.4375 L 11 6.21875 z "
     id="rect2984" />
  <path
     style="fill:#aad400;fill-opacity:1;stroke:none"
     d="m -58.203389,-9.5084746 c -1.108,0 -2,0.892 -2,2 l 0,9.9999998 c 0,1.1080005 0.892,2.0000005 2,2.0000005 l 12,0 c 1.108,0 2,-0.892 2,-2.0000005 l 0,-9.9999998 c 0,-1.108 -0.892,-2 -2,-2 l -12,0 z m 2.5625,5.125 c 0.5332,4.4e-6 0.951168,0.1191449 1.25,0.34375 0.300777,0.2226601 0.507808,0.5429723 0.59375,0.9375 l -0.875,0.15625 c -0.06055,-0.2109343 -0.175785,-0.3789029 -0.34375,-0.5 -0.166019,-0.1230433 -0.375003,-0.1874964 -0.625,-0.1875 -0.378908,3.6e-6 -0.681642,0.1347691 -0.90625,0.375 -0.222658,0.2402374 -0.312501,0.5898464 -0.3125,1.0625 -10e-7,0.5097673 0.117186,0.9003919 0.34375,1.15625 0.226561,0.25390701 0.50781,0.37500071 0.875,0.37500001 0.181638,7e-7 0.380857,-0.023437 0.5625,-0.09375 0.183591,-0.072265 0.337887,-0.1796866 0.46875,-0.28125001 l 0,-0.53125 -1,0 0,-0.71875 1.875,0 0,1.68750001 c -0.181645,0.175782 -0.466801,0.333985 -0.8125,0.46875001 -0.343753,0.13281199695 -0.677737,0.21875 -1.03125,0.21875 -0.449221,0 -0.853517,-0.09375 -1.1875,-0.28125 -0.333985,-0.18945301 -0.582032,-0.46289001 -0.75,-0.81250002 -0.167969,-0.3515611 -0.25,-0.7441389 -0.25,-1.15625 0,-0.447263 0.09375,-0.8398407 0.28125,-1.1875 0.187499,-0.3476525 0.482421,-0.6269492 0.84375,-0.8125 0.275389,-0.1425738 0.589842,-0.2187456 1,-0.21875 z m 3.9375,0.0625 0.6875,0 0,4.31250002 -0.84375,0 0,-3.09375002 c -0.300783,0.2812528 -0.654298,0.490237 -1.0625,0.625 l 0,-0.75 c 0.214843,-0.070309 0.466796,-0.2109341 0.71875,-0.40625 0.251952,-0.1972618 0.406248,-0.4257772 0.5,-0.6875 z m 3.21875,0 c 0.435545,4.3e-6 0.814451,0.1621135 1.09375,0.5 0.279294,0.335941 0.406247,0.9160185 0.40625,1.6875 -3e-6,0.7851576 -0.146487,1.33984451 -0.4375,1.68750001 -0.291018,0.34765601 -0.658205,0.53125001 -1.125,0.53125001 -0.335939,0 -0.60547,-0.103516 -0.8125,-0.28125 -0.207032,-0.17968701 -0.347657,-0.45703061 -0.40625,-0.81250002 l 0.78125,-0.0625 c 0.01953,0.16211031 0.07422,0.26562581 0.15625,0.34375001 0.08203,0.078126 0.208983,0.1250006 0.34375,0.125 0.16992,6e-7 0.318358,-0.093749 0.4375,-0.25 0.119139,-0.15624901 0.185545,-0.47656121 0.21875,-0.96875001 -0.207033,0.2402359 -0.470705,0.3750015 -0.78125,0.375 -0.337892,1.5e-6 -0.628907,-0.1464828 -0.875,-0.40625 -0.244141,-0.2617166 -0.375,-0.5820288 -0.375,-1 0,-0.4355436 0.148437,-0.7968714 0.40625,-1.0625 0.259765,-0.2675739 0.568358,-0.4062457 0.96875,-0.40625 z m -0.03125,0.6875 c -0.152345,3.6e-6 -0.273439,0.06641 -0.375,0.1875 -0.09961,0.119144 -0.156251,0.3203156 -0.15625,0.59375 -10e-7,0.2773463 0.04687,0.462893 0.15625,0.59375 0.109374,0.1289084 0.242186,0.2187521 0.40625,0.21875 0.158201,2.1e-6 0.298826,-0.062498 0.40625,-0.1875 0.109373,-0.1249976 0.156248,-0.32031 0.15625,-0.5625 -2e-6,-0.2656219 -0.0332,-0.4785124 -0.15625,-0.625 -0.121096,-0.1464808 -0.277345,-0.2187464 -0.4375,-0.21875 z"
     id="rect2983"
     inkscape:connector-curvature="0" />
</svg>
