<?xml version="1.0" encoding="UTF-8" standalone="no"?>
<!-- Created with Inkscape (http://www.inkscape.org/) -->

<svg
   xmlns:dc="http://purl.org/dc/elements/1.1/"
   xmlns:cc="http://creativecommons.org/ns#"
   xmlns:rdf="http://www.w3.org/1999/02/22-rdf-syntax-ns#"
   xmlns:svg="http://www.w3.org/2000/svg"
   xmlns="http://www.w3.org/2000/svg"
   xmlns:xlink="http://www.w3.org/1999/xlink"
   xmlns:sodipodi="http://sodipodi.sourceforge.net/DTD/sodipodi-0.dtd"
   xmlns:inkscape="http://www.inkscape.org/namespaces/inkscape"
   width="22"
   height="22"
   id="svg2"
   version="1.1"
   inkscape:version="0.48.0 r9654"
   sodipodi:docname="logitech-g-keyboard-panel.svg">
  <defs
     id="defs4">
    <linearGradient
       gradientTransform="translate(-24.361257,-3.561305)"
       gradientUnits="userSpaceOnUse"
       xlink:href="#linearGradient3587-6-5"
       id="linearGradient2401"
       y2="18.561304"
       x2="32.361256"
       y1="4.561305"
       x1="32.361256" />
    <linearGradient
       id="linearGradient3587-6-5">
      <stop
         offset="0"
         style="stop-color:#000000;stop-opacity:1"
         id="stop3589-9-2" />
      <stop
         offset="1"
         style="stop-color:#363636;stop-opacity:1"
         id="stop3591-7-4" />
    </linearGradient>
    <linearGradient
       inkscape:collect="always"
       xlink:href="#linearGradient3587-6-5-1"
       id="linearGradient15268-2"
       gradientUnits="userSpaceOnUse"
       gradientTransform="translate(-24.361257,-3.5792516)"
       x1="32.361256"
       y1="4.561305"
       x2="32.361256"
       y2="18.561304" />
    <linearGradient
       id="linearGradient3587-6-5-1">
      <stop
         offset="0"
         style="stop-color:#000000;stop-opacity:1"
         id="stop3589-9-2-0" />
      <stop
         offset="1"
         style="stop-color:#363636;stop-opacity:1"
         id="stop3591-7-4-5" />
    </linearGradient>
    <inkscape:perspective
       id="perspective9"
       inkscape:persp3d-origin="12 : 8 : 1"
       inkscape:vp_z="24 : 12 : 1"
       inkscape:vp_y="0 : 1000 : 0"
       inkscape:vp_x="0 : 12 : 1"
       sodipodi:type="inkscape:persp3d" />
  </defs>
  <sodipodi:namedview
     id="base"
     pagecolor="#ffffff"
     bordercolor="#666666"
     borderopacity="1.0"
     inkscape:pageopacity="0"
     inkscape:pageshadow="2"
     inkscape:zoom="15.327746"
     inkscape:cx="8.8287431"
     inkscape:cy="10.920422"
     inkscape:document-units="px"
     inkscape:current-layer="layer1"
     showgrid="false"
     inkscape:window-width="1143"
     inkscape:window-height="734"
     inkscape:window-x="443"
     inkscape:window-y="172"
     inkscape:window-maximized="0" />
  <metadata
     id="metadata7">
    <rdf:RDF>
      <cc:Work
         rdf:about="">
        <dc:format>image/svg+xml</dc:format>
        <dc:type
           rdf:resource="http://purl.org/dc/dcmitype/StillImage" />
        <dc:title></dc:title>
      </cc:Work>
    </rdf:RDF>
  </metadata>
  <g
     inkscape:label="Layer 1"
     inkscape:groupmode="layer"
     id="layer1"
     transform="translate(0,-1030.3622)">
    <rect
       style="opacity:0.6;fill:#43423e;fill-opacity:1;stroke:none"
       id="rect2992"
       width="20"
       height="18"
       x="1"
       y="1032.3622"
       rx="3"
       ry="3" />
    <rect
       style="fill:#dfd8c8;fill-opacity:1;stroke:none"
       id="rect2992-0"
       width="18"
       height="16"
       x="2"
       y="1033.3622"
       rx="3"
       ry="3" />
    <path
       style="font-size:13.00297355999999915px;font-style:normal;font-variant:normal;font-weight:normal;font-stretch:normal;text-indent:0;text-align:center;text-decoration:none;line-height:125%;letter-spacing:0px;word-spacing:0px;text-transform:none;direction:ltr;block-progression:tb;writing-mode:lr-tb;text-anchor:middle;baseline-shift:baseline;color:#000000;fill:#000000;fill-opacity:1;fill-rule:nonzero;stroke:none;stroke-width:1px;marker:none;visibility:visible;display:inline;overflow:visible;enable-background:accumulate;font-family:Sans;-inkscape-font-specification:Fixed"
       d="m 11.331141,1036.848 c -1.4814626,0 -2.6306701,0.3723 -3.4687496,1.1534 -0.8338507,0.7774 -1.2500007,1.8688 -1.25,3.2635 -7e-7,1.3909 0.4161493,2.4823 1.25,3.2635 0.8380795,0.7773 1.987287,1.1535 3.4687496,1.1535 0.677232,0 1.340677,-0.065 1.9375,-0.2251 0.596808,-0.1639 1.129761,-0.4152 1.625,-0.7315 l 0,-3.6573 -1.28125,0 0,0.9565 0,1.4911 0,0.7877 c -0.283601,0.1486 -0.581957,0.2652 -0.9375,0.3376 -0.355556,0.069 -0.765853,0.1125 -1.21875,0.1125 -1.159775,0 -2.0408856,-0.3172 -2.6249996,-0.9002 -0.5798876,-0.583 -0.8750021,-1.4375 -0.875,-2.5883 -2.1e-6,-1.1546 0.2951124,-2.0334 0.875,-2.6164 0.584114,-0.583 1.4652246,-0.8721 2.6249996,-0.8721 0.588345,0 1.154168,0.098 1.6875,0.2813 0.533317,0.1829 1.025925,0.4539 1.5,0.8159 l 0,-1.2379 c -0.469842,-0.2667 -0.972536,-0.4536 -1.53125,-0.5908 -0.554495,-0.1372 -1.163276,-0.1969 -1.78125,-0.1969 z"
       id="text3786"
       inkscape:connector-curvature="0" />
  </g>
</svg>
