<?xml version="1.0" encoding="UTF-8" standalone="no"?>
<!-- Created with Inkscape (http://www.inkscape.org/) -->

<svg
   xmlns:dc="http://purl.org/dc/elements/1.1/"
   xmlns:cc="http://creativecommons.org/ns#"
   xmlns:rdf="http://www.w3.org/1999/02/22-rdf-syntax-ns#"
   xmlns:svg="http://www.w3.org/2000/svg"
   xmlns="http://www.w3.org/2000/svg"
   xmlns:xlink="http://www.w3.org/1999/xlink"
   xmlns:sodipodi="http://sodipodi.sourceforge.net/DTD/sodipodi-0.dtd"
   xmlns:inkscape="http://www.inkscape.org/namespaces/inkscape"
   width="320"
   height="240"
   id="svg2"
   version="1.2"
   inkscape:version="0.48.2 r9819"
   sodipodi:docname="g19-menu-screen.svg">
  <defs
     id="defs4">
    <filter
       id="filter3967"
       inkscape:label="Drop shadow"
       width="1.5"
       height="1.5"
       x="-0.25"
       y="-0.25"
       color-interpolation-filters="sRGB">
      <feGaussianBlur
         id="feGaussianBlur3969"
         in="SourceAlpha"
         stdDeviation="4"
         result="blur" />
      <feColorMatrix
         id="feColorMatrix3971"
         result="bluralpha"
         type="matrix"
         values="1 0 0 0 0 0 1 0 0 0 0 0 1 0 0 0 0 0 0.5 0 " />
      <feOffset
         id="feOffset3973"
         in="bluralpha"
         dx="0.9"
         dy="0.9"
         result="offsetBlur" />
      <feMerge
         id="feMerge3975">
        <feMergeNode
           id="feMergeNode3977"
           in="offsetBlur" />
        <feMergeNode
           id="feMergeNode3979"
           in="SourceGraphic" />
      </feMerge>
    </filter>
    <clipPath
       clipPathUnits="userSpaceOnUse"
       id="clipPath3087">
      <rect
         style="fill:#000000;fill-opacity:0.50196078;stroke:none"
         id="rect3089"
         width="201.16251"
         height="34.797737"
         x="24.690418"
         y="796.4826" />
    </clipPath>
    <clipPath
       clipPathUnits="userSpaceOnUse"
       id="clipPath3093">
      <rect
         style="fill:#000000;fill-opacity:0.50196078;stroke:none"
         id="rect3095"
         width="200"
         height="20"
         x="24.547735"
         y="836.11218" />
    </clipPath>
  </defs>
  <sodipodi:namedview
     id="base"
     pagecolor="#ffffff"
     bordercolor="#666666"
     borderopacity="1.0"
     inkscape:pageopacity="0.0"
     inkscape:pageshadow="2"
     inkscape:zoom="2.8"
     inkscape:cx="192.98849"
     inkscape:cy="205.51012"
     inkscape:document-units="px"
     inkscape:current-layer="layer1"
     showgrid="true"
     borderlayer="false"
     inkscape:window-width="1429"
     inkscape:window-height="940"
     inkscape:window-x="1976"
     inkscape:window-y="71"
     inkscape:window-maximized="0"
     fit-margin-top="0"
     fit-margin-left="0"
     fit-margin-right="0"
     fit-margin-bottom="0">
    <inkscape:grid
       type="xygrid"
       id="grid3986"
       empspacing="5"
       visible="true"
       enabled="true"
       snapvisiblegridlinesonly="true" />
  </sodipodi:namedview>
  <metadata
     id="metadata7">
    <rdf:RDF>
      <cc:Work
         rdf:about="">
        <dc:format>image/svg+xml</dc:format>
        <dc:type
           rdf:resource="http://purl.org/dc/dcmitype/StillImage" />
        <dc:title />
      </cc:Work>
    </rdf:RDF>
  </metadata>
  <g
     inkscape:label="Layer 1"
     inkscape:groupmode="layer"
     id="layer1"
     transform="translate(-9.5477353,-786.11217)">
    <rect
       style="fill:#696969;fill-opacity:0.50196078;stroke:none"
       id="rect3000-5"
       width="272"
       height="34.999989"
       x="12.547735"
       y="790.11218"
       rx="6"
       ry="6" />
    <rect
       style="fill:#696969;fill-opacity:0.50196078;stroke:none"
       id="rect3000"
       width="35.000008"
       height="35.000008"
       x="289.54773"
       y="790.11218"
       rx="4"
       ry="4" />
    <image
       sodipodi:absref="/home/tanktarta/Workspaces/Gnome/gnome15/gnome15-plugins/src/profiles/default/${icon}"
       xlink:href="${icon}"
       height="24.999987"
       width="24.999987"
       y="795.11218"
       x="294.54773"
       id="image4256" />
    <text
       xml:space="preserve"
       style="font-size:28px;font-style:normal;font-weight:normal;text-align:start;line-height:125%;letter-spacing:0px;word-spacing:0px;text-anchor:start;fill-opacity:1;stroke:none;font-family:Bitstream Vera Sans"
       x="23.692986"
       y="824.32098"
       id="text4017"
       sodipodi:linespacing="125%"
       transform="matrix(0.99422132,0,0,1.0058125,-6.3191238,-12.593128)"
       clip-path="url(#clipPath3087)"><tspan
         sodipodi:role="line"
         id="tspan4019"
         x="23.692986"
         y="824.32098">${title}</tspan></text>
    <rect
       style="fill:#696969;fill-opacity:0.50196078;stroke:none"
       id="rect3000-6"
       width="35.000008"
       height="191.00003"
       x="289.54773"
       y="830.11218"
       rx="4"
       ry="4" />
    <g
       id="viewScrollbar"
       class="scrollbar">
      <rect
         ry="3.9999995"
         rx="4"
         y="836.11218"
         x="304.54773"
         height="179.99998"
         width="5.0000038"
         id="rect3000-6-4"
         style="fill:#696969;fill-opacity:0.50196078;stroke:none"
         class="track" />
      <rect
         ry="4"
         rx="4"
         y="836.11218"
         x="294.54773"
         height="30"
         width="25"
         id="rect3017"
         style="fill:#ff0000;fill-opacity:0.50196078;stroke:none"
         class="knob" />
    </g>
    <rect
       style="fill:none;stroke:none;display:inline"
       id="menu"
       width="272"
       height="189.9998"
       x="12.547735"
       y="831.11218"
       rx="6"
       ry="6"
       class="listView" />
    <g
       id="g3836"
       transform="translate(286.07143,-63.214286)"
       title="del !profile_locked">
      <path
         transform="translate(9.5477353,786.11217)"
         id="rect3009"
         d="m -42,80 0,17 24,0 0,-17 -24,0 z m 11.3125,2.59375 c 0.955844,-0.117588 1.976119,0.219138 2.65625,1 1.072849,1.23175 0.96004,3.09023 -0.25,4.1875 l -0.0625,0.0625 c -0.115991,0.101027 -0.249043,0.169903 -0.375,0.25 l 0.96875,6 -5.125,0 0.875,-6.0625 c -0.20128,-0.139249 -0.394378,-0.306978 -0.5625,-0.5 -1.088211,-1.24939 -0.968136,-3.13054 0.28125,-4.21875 0.468519,-0.408079 1.020244,-0.648197 1.59375,-0.71875 z"
         style="opacity:0.98999999;fill-opacity:1;stroke:none"
         inkscape:connector-curvature="0" />
      <path
         inkscape:connector-curvature="0"
         id="path3779"
         d="m -20.785281,857.51475 c -2.108552,0.0627 -4.206544,0.91746 -5.921313,2.58839 -2.055411,2.00286 -3.129054,4.77153 -3.215547,7.58968 l 3.646901,0 c 0.05973,-1.72019 0.705877,-3.42758 1.9607,-4.65033 1.211553,-1.18057 2.749601,-1.69394 4.235111,-1.57935 1.48551,0.11455 2.944568,0.83811 3.999827,2.19355 0.910151,1.16904 1.333311,2.59029 1.37249,4.03613 l 3.568473,0 c -0.06367,-2.34954 -0.832023,-4.67759 -2.313626,-6.58065 -1.920288,-2.46653 -4.62202,-3.6781 -7.333016,-3.59742 z"
         style="opacity:0.98999999;fill-opacity:1;stroke:none" />
    </g>
  </g>
</svg>
