<?xml version="1.0" encoding="UTF-8" standalone="no"?>
<!-- Created with Inkscape (http://www.inkscape.org/) -->

<svg
   xmlns:dc="http://purl.org/dc/elements/1.1/"
   xmlns:cc="http://creativecommons.org/ns#"
   xmlns:rdf="http://www.w3.org/1999/02/22-rdf-syntax-ns#"
   xmlns:svg="http://www.w3.org/2000/svg"
   xmlns="http://www.w3.org/2000/svg"
   xmlns:sodipodi="http://sodipodi.sourceforge.net/DTD/sodipodi-0.dtd"
   xmlns:inkscape="http://www.inkscape.org/namespaces/inkscape"
   version="1.0"
   width="24"
   height="24"
   id="svg2"
   inkscape:version="0.48.0 r9654"
   sodipodi:docname="logitech-g-keyboard-panel.svg">
  <metadata
     id="metadata10">
    <rdf:RDF>
      <cc:Work
         rdf:about="">
        <dc:format>image/svg+xml</dc:format>
        <dc:type
           rdf:resource="http://purl.org/dc/dcmitype/StillImage" />
        <dc:title />
      </cc:Work>
    </rdf:RDF>
  </metadata>
  <sodipodi:namedview
     pagecolor="#ffffff"
     bordercolor="#666666"
     borderopacity="1"
     objecttolerance="10"
     gridtolerance="10"
     guidetolerance="10"
     inkscape:pageopacity="0"
     inkscape:pageshadow="2"
     inkscape:window-width="1168"
     inkscape:window-height="776"
     id="namedview8"
     showgrid="false"
     inkscape:zoom="22"
     inkscape:cx="7.7833808"
     inkscape:cy="14.006926"
     inkscape:window-x="2090"
     inkscape:window-y="142"
     inkscape:window-maximized="0"
     inkscape:current-layer="svg2" />
  <defs
     id="defs4" />
  <path
     style="fill:#606060;fill-opacity:1;stroke:none"
     d="M 6.2857143,4 C 5.0194286,4 4,5.0194285 4,6.2857144 L 4,17.714285 C 4,18.980572 5.0194286,20 6.2857143,20 L 17.714286,20 C 18.980571,20 20,18.980572 20,17.714285 L 20,6.2857144 C 20,5.0194285 18.980571,4 17.714286,4 L 6.2857143,4 z m 6.0714287,2.2857144 c 1.517133,1.14e-5 2.685439,0.279192 3.535715,0.8571426 0.85581,0.572947 1.434039,1.377663 1.678571,2.392857 L 15.107143,9.964285 C 14.934857,9.421512 14.620775,8.990177 14.142857,8.678571 13.670479,8.361958 13.068469,8.178581 12.357143,8.178572 c -1.078121,9e-6 -1.932345,0.310412 -2.5714287,0.928571 -0.633535,0.618176 -0.964289,1.533774 -0.9642857,2.75 -3.3e-6,1.311727 0.3196361,2.305914 0.9642857,2.964285 0.6446407,0.653352 1.4909377,1.000003 2.5357137,1 0.516822,3e-6 1.054592,-0.104788 1.571429,-0.285714 0.522376,-0.185951 0.949081,-0.41723 1.321428,-0.678571 l 0,-1.392857 -2.821428,0 0,-1.857143 5.321429,0 0,4.392857 c -0.516841,0.452319 -1.266371,0.86751 -2.25,1.214286 C 14.486193,17.556038 13.505862,17.714285 12.5,17.714285 11.221817,17.714285 10.093149,17.482473 9.1428572,17 8.1925575,16.512503 7.4779251,15.792469 7,14.892857 6.5220717,13.988224 6.2857135,13.024725 6.2857143,11.964286 6.2857135,10.813394 6.5379275,9.787449 7.0714286,8.892858 7.6049265,7.998283 8.4004695,7.298886 9.4285714,6.8214284 10.212145,6.4545593 11.190106,6.2857258 12.357143,6.2857144 z"
     id="rect2987"
     inkscape:connector-curvature="0" />
</svg>
